<?xml version="1.0" encoding="UTF-8"?>
<svg id="Layer_2" data-name="Layer 2" xmlns="http://www.w3.org/2000/svg" viewBox="0 0 78.12 78.12">
  <defs>
    <style>
      .cls-1 {
        fill: #d17d34;
      }
    </style>
  </defs>
  <g id="Layer_1-2" data-name="Layer 1">
    <path class="cls-1" d="M42.2,39.06c0,1.73-1.41,3.14-3.14,3.14s-3.14-1.41-3.14-3.14,1.41-3.14,3.14-3.14,3.14,1.41,3.14,3.14ZM78.12,39.06c0,21.54-17.52,39.06-39.06,39.06S0,60.6,0,39.06,17.52,0,39.06,0s39.06,17.52,39.06,39.06ZM36.79,63.05c0-1.34-1.08-2.41-2.41-2.41-9.31,0-16.88-7.58-16.88-16.88,0-1.34-1.08-2.41-2.41-2.41s-2.41,1.08-2.41,2.41c0,11.97,9.74,21.71,21.71,21.71,1.34,0,2.41-1.08,2.41-2.41h0ZM52.34,39.06c0-7.32-5.96-13.28-13.28-13.28s-13.28,5.96-13.28,13.28,5.96,13.28,13.28,13.28,13.28-5.96,13.28-13.28ZM65.46,34.37c0-11.97-9.74-21.71-21.71-21.71-1.34,0-2.41,1.08-2.41,2.41s1.08,2.41,2.41,2.41c9.31,0,16.88,7.58,16.88,16.88,0,1.34,1.08,2.41,2.41,2.41s2.41-1.08,2.41-2.41h0Z"/>
  </g>
</svg>