<?xml version="1.0" encoding="UTF-8"?>
<svg id="Layer_2" data-name="Layer 2" xmlns="http://www.w3.org/2000/svg" viewBox="0 0 75 83.34">
  <defs>
    <style>
      .cls-1 {
        fill: #d17d34;
      }
    </style>
  </defs>
  <g id="Layer_1-2" data-name="Layer 1">
    <path class="cls-1" d="M16.66,8.34v66.67c0,4.6-3.73,8.33-8.33,8.33s-8.33-3.73-8.33-8.33V8.34C0,3.73,3.73,0,8.33,0s8.33,3.73,8.33,8.33ZM47.85.25c-4.46-1.11-8.99,1.6-10.1,6.06l-16.67,66.67c-1.11,4.47,1.6,8.99,6.06,10.11.68.17,1.36.25,2.03.25,3.73,0,7.13-2.53,8.08-6.31L53.92,10.35c1.11-4.46-1.6-8.99-6.07-10.1h0ZM66.66,0C62.06,0,58.33,3.73,58.33,8.34v66.67c0,4.6,3.73,8.33,8.33,8.33s8.33-3.73,8.33-8.33V8.34C75,3.73,71.27,0,66.66,0Z"/>
  </g>
</svg>