<?xml version="1.0" encoding="UTF-8"?>
<svg id="Layer_2" data-name="Layer 2" xmlns="http://www.w3.org/2000/svg" viewBox="0 0 77.92 77.93">
  <defs>
    <style>
      .cls-1 {
        fill: #d17d34;
      }
    </style>
  </defs>
  <g id="Layer_1-2" data-name="Layer 1">
    <path class="cls-1" d="M38.99,0c-1.48,0-2.96.81-4.48,2.45l-9.28,10.02c-2.92,3.15-1.82,6.48,1.44,6.48h6.5v14.23h-14.22v-6.5c0-3.27-3.33-4.36-6.48-1.45l-10.02,9.24c-3.26,3-3.29,5.9,0,8.95l10.02,9.27c3.15,2.92,6.48,1.82,6.48-1.45v-6.49h14.23v14.22h-6.5c-3.27,0-4.36,3.33-1.44,6.48l9.28,10.02c3.04,3.28,5.94,3.26,8.95-.01l9.23-10.02c2.92-3.15,1.83-6.48-1.44-6.48h-6.5v-14.22h14.22v6.49c0,3.27,3.33,4.36,6.48,1.45l10.01-9.27c3.29-3.04,3.26-5.94,0-8.95l-10.02-9.24c-3.15-2.92-6.48-1.82-6.48,1.45v6.5h-14.22v-14.22h6.49c3.27,0,4.36-3.33,1.44-6.48l-9.23-10.02C41.95.82,40.48,0,38.99,0Z"/>
  </g>
</svg>