<?xml version="1.0" encoding="UTF-8"?>
<svg id="Layer_2" data-name="Layer 2" xmlns="http://www.w3.org/2000/svg" viewBox="0 0 95 81.54">
  <defs>
    <style>
      .cls-1 {
        fill: #d17d34;
      }
    </style>
  </defs>
  <g id="Layer_1-2" data-name="Layer 1">
    <path class="cls-1" d="M26.07,34.62l7.1,7.73,10.84-9.91-8.72-8c2.08-5.77,1.2-12.44-2.71-17.41C27.49.54,19.22-1.45,12.16,1.03c-.93.33-1.11,1.58-.31,2.16l8.62,6.29c.66.48.98,1.29.84,2.09l-1.23,6.91c-.11.64-.52,1.2-1.1,1.5l-6.21,3.28c-.72.38-1.59.32-2.24-.16L1.97,16.87c-.8-.58-1.94-.04-1.96.95-.11,4.79,1.66,9.61,5.31,13.27,5.61,5.61,13.98,6.78,20.75,3.53h0Z"/>
    <path class="cls-1" d="M61.74,48.74l-11.33,12.39,17.06,18.56c2.17,2.38,5.92,2.47,8.21.18l5.36-5.36c2.29-2.29,2.2-6.03-.18-8.21l-19.12-17.57ZM74.61,73.43c-1.48,1.48-3.87,1.48-5.34,0s-1.48-3.87,0-5.34,3.87-1.48,5.34,0c1.47,1.48,1.47,3.87,0,5.34Z"/>
    <path class="cls-1" d="M94.29,32.21l-3.58-3.56c-.62-.62-1.62-.62-2.24,0l-.6.6c-.65.65-1.69.65-2.36,0l-.23-.25c-.39-.39-.58-.93-.53-1.46l.25-3.21c.14-1.69-.46-3.35-1.66-4.55l-7.35-7.33c-3.14-3.14-6.8-5.78-10.86-7.51-4.97-2.13-11.53-3.49-18.54-.99-1.55.55-1.43,2.82.16,3.21,20.97,5.52,14.91,14.72,14.06,15.85v.02l.05.02,9.89,9.89,3.51-.41c1.76-.23,3.54.37,4.81,1.64l.76.76c.65.65.65,1.71,0,2.36l-.6.6c-.62.6-.62,1.62,0,2.24l3.58,3.56c.97.97,2.52.97,3.49,0l8-7.98c.96-.97.96-2.55,0-3.52h0Z"/>
    <path class="cls-1" d="M57.57,26.31L13.82,66.31c-2.39,2.18-2.48,5.91-.2,8.2l5.37,5.37c2.29,2.29,6.02,2.2,8.2-.2l40-43.75-9.62-9.62Z"/>
  </g>
</svg>