<?xml version="1.0" encoding="UTF-8"?>
<svg id="Layer_2" data-name="Layer 2" xmlns="http://www.w3.org/2000/svg" viewBox="0 0 84 87.5">
  <defs>
    <style>
      .cls-1 {
        fill: #d17d34;
        fill-rule: evenodd;
      }
    </style>
  </defs>
  <g id="Layer_1-2" data-name="Layer 1">
    <path class="cls-1" d="M35.09,4.17c2.93-5.56,10.89-5.56,13.82,0l.14.26c1.97,3.75,6.57,5.24,10.37,3.37l.26-.13c5.64-2.78,12.09,1.91,11.18,8.13l-.04.29c-.61,4.19,2.23,8.1,6.41,8.82l.29.05c6.2,1.06,8.66,8.64,4.27,13.15l-.2.21c-2.95,3.03-2.95,7.87,0,10.9l.2.2c4.39,4.5,1.93,12.08-4.27,13.15l-.29.05c-4.17.72-7.01,4.62-6.41,8.82l.04.29c.9,6.22-5.54,10.91-11.18,8.12l-.26-.12c-3.8-1.87-8.39-.38-10.37,3.37l-.14.25c-2.93,5.57-10.89,5.57-13.82,0l-.14-.25c-1.97-3.75-6.57-5.24-10.37-3.37l-.26.12c-5.64,2.78-12.09-1.9-11.18-8.12l.04-.29c.61-4.19-2.23-8.1-6.41-8.82l-.29-.05c-6.2-1.07-8.66-8.64-4.27-13.15l.2-.2c2.95-3.03,2.95-7.87,0-10.9l-.2-.21c-4.39-4.5-1.92-12.08,4.27-13.15l.29-.05c4.17-.72,7.01-4.63,6.41-8.82l-.04-.29c-.9-6.22,5.54-10.91,11.18-8.13l.26.13c3.8,1.87,8.39.38,10.37-3.37l.14-.26ZM60.69,29.04c-1.53-1.39-3.85-1.38-5.36-.02l-.29.29-17.18,18.9-7.03-7.03-.3-.27c-1.57-1.28-3.89-1.19-5.35.27s-1.55,3.78-.27,5.35l.27.3,10,10c.77.77,1.83,1.2,2.92,1.17,1.09-.03,2.13-.5,2.87-1.31l20-22,.26-.32c1.21-1.63,1.01-3.94-.53-5.34h0Z"/>
  </g>
</svg>