<?xml version="1.0" encoding="UTF-8"?>
<svg id="Layer_2" data-name="Layer 2" xmlns="http://www.w3.org/2000/svg" viewBox="0 0 200.09 237.9">
  <defs>
    <style>
      .cls-1 {
        fill: #f8efdd;
      }

      .cls-2 {
        fill: #212121;
      }

      .cls-3 {
        fill: #428175;
      }

      .cls-4 {
        fill: #c65240;
      }

      .cls-5 {
        fill: #d17d34;
      }
    </style>
  </defs>
  <g id="_1b" data-name="1b">
    <g id="bg_copy" data-name="bg copy">
      <g>
        <path class="cls-5" d="M190.76,13.55c-2.58,2.49-3.83,8.78-5.4,12.05-1.1-.06-2.15-.56-3.26-.54-1.1.02-2.66.88-3.4.81-.57-.05-1.33-.92-1.98-1.18-1.69-.66-3.33-.47-4.98.13-.33-5.35-1.24-14.36-6.55-17.19-3.43-1.82-8.01-.95-8.82,3.28-.56,2.9,2.19,10.96,2.72,14.61.48,3.28.71,6.61.83,9.92-.13.71-1.16.97-1.7,1.45-4.98,4.36-5.08,9.46-1.92,15.02.32.57,1.7,2.14,1.74,2.46.02.14-.91,1.7-1.01,2.57-.44,4.02,1.47,7.48,4.75,9.69l.13.42c-3.14,8.97-12.66,15.08-22.2,13.35.51-1.7.94-3.43,1.24-5.19.29-1.74.27-4.03.66-5.63.3-1.27,2.43-3.92,3.14-5.52,5.36-12.16.3-29.84-13.19-34.11C124.41,6.19,99.29-3.43,76.18,1.08c-22.16,4.33-40.95,21.16-45.32,43.62-.25,1.27-.28,4.14-.74,5.02-.14.27-1.76,1.43-2.23,1.97-8.51,9.54-7.32,25.73.53,35.27l-26.34,6.07c-1,.64-1.52,1.71-1.95,2.77-.27,21.65.04,43.35.21,64.96.07,9.05-.78,19.8-.02,28.6.23,2.65,1.07,4.01,3.25,5.41,5.34,3.44,12.18,6.84,17.85,9.96,14.31,7.87,28.8,15.42,43.14,23.25,7.19,3.92,16.86,11.81,25.17,9.5l95.66-38.17c2.58-.98,3.98-3.62,4.21-6.28,1.1-12.79-1.07-26.96.27-39.85l-.07-52.66c-.2-.97-1.52-2.4-2.42-2.83l-30.07-8.64c7.9-3.39,13.81-10.51,16.8-18.49,1.06-.52,2.24-.45,3.41-.79,2.69-.76,6.11-3.24,6.71-6.15.13-.64.02-2.11.16-2.33.1-.16,2.49-1.47,3.11-2,7.06-6.09,6.09-12.7,6.83-20.98.56-6.28,7.51-17,5.37-22.68-1.38-3.68-6.04-4.88-8.92-2.1ZM141.81,44.87c2.34,6.51,2.49,13.13-.27,19.54l-.86-7.92c-1.44-8.4-4.52-16.61-9.9-23.27,5.56.94,9.25,6.73,11.03,11.66ZM107.6,7.73c8.65,3.83,15.86,10.95,19.51,19.71-5.56-4.86-8.74-11.14-15.09-15.21-13.68-8.78-31.74-7.28-45.9-.48-13.9,6.67-24.71,20.06-27.49,35.33l-4.96.55C38.47,14.67,77.3-5.68,107.6,7.73ZM42.19,48.16c-.2.42-.62.05-.66-.14-.14-.72,1.29-4.97,1.64-5.96,6.22-17.35,24.56-31.45,43.1-32.46,9.08-.5,20.25,1.42,26.39,8.66-4.54-2.16-8.86-4.2-13.86-5.16-25.77-4.96-48.4,11.21-56.62,35.06ZM86.42,39.5c-5.23-3.27-11.11-3.24-14.39,2.54-.38.67-.46,1.74-1.09,2.18.31-8.19,9.35-12.32,14.96-5.64.25.29.64.43.52.92ZM59.12,59.57c.35-5.61,2.68-11.71,7.09-15.34l-6.56,15.73c-.47.02-.56.13-.52-.39ZM55.18,59.43l-.26-2.49c1.35-6.76,4.2-14.12,9.97-18.23l-4.42,7.77-5.29,12.94ZM60.17,29.54c-6.17,6.94-10.38,15.42-12.73,24.38-2.17-1.98-.68-5.06.2-7.41,1.76-4.7,6.22-12.17,10.05-15.4.3-.25,2.26-1.78,2.49-1.58ZM112.55,35.3c.24.23,1.89,2.17,1.7,2.37-3.66-2.69-8.15-4.64-12.32-1.69l-2.9,3.26c.95-7.23,8.53-8.79,13.52-3.94ZM27.23,78.83c-2.08-5.27-2.78-12.43-1.11-17.88.5-1.65,1.89-4.63,3.8-4.88,3.51-.45,6.58,5.04,7.53,7.83,1.61,4.74,3.02,17.67-1.71,20.82-4.12,2.73-7.24-2.67-8.51-5.89ZM36.02,88.53c-.12-.68.09-.41.37-.55,7.11-3.59,6.45-15.28,4.96-21.95-1.24-5.52-4.05-11.8-10.32-12.76,8.41-8.09,14.49,3.29,16.4,10.62,2.3,8.78,3.03,28.84-11.42,24.64ZM50.2,58.12c.34-7.9,4.34-15.43,9.28-21.41l3.06-2.19c-5.8,6.62-7.96,15.31-11.75,23.02-.17.35.17.72-.59.58ZM89.57,131.53c-.13-.1.26-.33.26-.39v-5.24c0-.71-.61-3.04-.86-3.86-.76-2.47-2.39-5.46-5.17-5.97.83,2.53,2.09,4.89,2.55,7.54.82,4.67,1.01,12.55-5.44,12.64,1.42-4.29,1.13-9.89-1.27-13.81-.73-1.2-1.83-2.85-3.47-2.33-.96.68,1.09,3.45,1.46,4.35,1.35,3.37,1.37,7.3.26,10.74-.92,2.84-3.16,5.48-6.29,3.42-2.59-1.7-.91-6.89-1.18-9.57-.13-1.29-.76-2.32-1.05-3.54-.56-.08-.42-.02-.58.33-.34.74-.43,1.72-.49,2.53-3.16.51-6.95-.6-8.9-3.25-.44-.6-1.58-3.05-1.58-3.67,0-1.74-.08-3.51,0-5.24,0-.12.67-.45-.13-.39-2.06,1.85-2.26,5.29-1.85,7.88.28,1.78,1.35,2.8,1.72,4.44-8.46-1.48-8.16-12.25-3.78-17.81,2.94-3.73,8.97-6.52,13.5-4.08-2.4,1.26-6.13,2.6-7.28,5.31-.16.38-.64,1.48.06,1.63.22.05,2.82-2.27,3.63-2.67,3.27-1.61,7.17-1.53,10.48-.15l4.39,2.56c-.55-2.81-3.81-4.99-6.56-5.25-.5-.39,2.66-.77,3.01-.79,9.43-.64,16.73,4.74,18.4,14.16.6,3.41.29,9.58-3.82,10.5ZM112.65,89.95c-.92.65-2.57,1.24-3.27,1.98-1.07,1.13-2.1,3.46-3.28,4.86-7.98,9.44-22.6,7.93-27.94-3.27-.62-1.31-1-3.54-1.71-4.59-.53-.79-2.18-1.53-3.01-2.23-5.13-4.33-5.77-11.6,1.17-14.28-3.98-6.22-4.26-16.64-1.27-23.3,5.16-11.48,17.2-6.49,19.68,3.73l4.67-.26c.54-6.54,5.49-16.77,13.5-11.99,6.94,4.14,9.32,19.09,6.87,26.18-.13.39-.16.93-.66,1.05-.75-2.64-3.01-4.11-5.66-4.44l-.16-2.6-5.46-2.53,4.9-3.92c-.12-4.12-5.79-9.89-8.9-4.79-2.06,3.37-.84,11.83.52,15.53-2.2,1.79-5.66,3.87-4.66,7.2.35.32,2.6-2.26,3.02-2.61,2.86-2.35,8.18-5.42,11.68-2.77,2.34,1.77,2.44,5.31.78,7.61-2.45,3.41-7.01,3.97-10.9,3.81-.31-.01-2.54-.67-2.22.12,4.54,4.3,12.46,2.38,16-2.36.6-.34,1.44-3.16,1.97-3.01.36.1,1.04,2.08,1.12,2.56.8,5.31-2.51,11.33-6.78,14.33ZM114.77,97.19l5.29-8.48,4.68-9.61c.15,7.17-4.49,13.86-9.97,18.09ZM118.19,100.07l5.12-7.86,5.64-12.59c.18,8.09-4.24,15.88-10.76,20.45ZM133.11,84.18c-.67,5.85-3.79,11.87-7.57,16.3l-3.69,2.74c2.17-2.93,4.26-5.92,5.87-9.21,2.03-4.12,3.17-8.61,5.08-12.77.17-.37-.16-.72.6-.57-.5,1.1-.16,2.33-.3,3.5ZM179.14,40.48c.18-.84.86-1.88,1.12-2.81.85-3.02.8-5.7.15-8.75,2.23-1.69,5.37.22,5.73,2.87.65,4.73-1.71,12.6-7.59,12.43.55-1.2.34-2.6.58-3.74ZM174.72,27.46c3.64.34,4.12,6.97,2.39,9.43-1.86-1.51-4-2.57-6.42-2.89.29-2.42.63-6.85,4.03-6.53ZM159.41,12.33c-.19-3.51,4.38-2.52,5.98-.18,3.81,5.54,3.51,15.42,3.19,21.85-1.85-.3-3.71.23-5.51.52-.03-4.64-.55-9.31-1.49-13.85-.48-2.32-2.06-6.32-2.17-8.34ZM196.64,20.47c-.58,4.86-4.49,11.18-5.15,16.09-.4,2.95.04,6.11-.33,9.11-1.08,8.68-7.22,14.74-16.01,15.34-.13.69.1.41.37.55,2.23,1.14,2.85.72,5.01,1.02,1.01.14-.35,1.85-.67,2.22-3.36,3.92-10.73,2.55-14.67.25-2.53-1.48-5.72-4.52-4.74-7.71,3.08,1.68,5.3,3.79,9.06,2.36.48-.18,1.09-.11.91-.78-6.25-.87-13.46-8.36-12.87-14.83.71-7.81,15.24-9.53,18.09-4.41,3,5.39-6.33,7.17-9.55,4.29-.61-.2.57,1.83.78,2.1,1.98,2.44,4.93,1.84,7.7,1.62,1.84,2.11,2.44,4.51,2.02,7.29,2.29-1.73,1.98-4.65,1.06-7.08-.17-.46-1.28-1.49-.07-1.52,1.22-.03,2.15.46,3.71.18,6.13-1.09,8.38-10.25,7.75-15.54-.16-1.31-1.13-2.46-1.23-3.23-.08-.62,2.56-6.78,3.05-7.85.54-1.17,1.82-4.42,3.09-4.53,3.04-.27,2.97,2.87,2.71,5.07Z"/>
        <path id="_1TM39r" data-name="1TM39r" class="cls-2" d="M139.71,80.4c9.54,1.72,19.06-4.38,22.2-13.35l-.13-.42c-3.28-2.22-5.19-5.68-4.75-9.69.1-.88,1.03-2.44,1.01-2.57-.05-.32-1.42-1.89-1.74-2.46-3.16-5.56-3.05-10.66,1.92-15.02.54-.47,1.57-.74,1.7-1.45-.12-3.32-.35-6.64-.83-9.92-.53-3.65-3.28-11.71-2.72-14.61.81-4.23,5.39-5.1,8.82-3.28,5.31,2.82,6.22,11.83,6.55,17.19,1.65-.6,3.3-.79,4.98-.13.66.26,1.42,1.12,1.98,1.18.74.07,2.3-.78,3.4-.81s2.16.48,3.26.54c1.57-3.27,2.82-9.56,5.4-12.05,2.88-2.78,7.53-1.58,8.92,2.1,2.14,5.68-4.81,16.4-5.37,22.68-.74,8.28.24,14.88-6.83,20.98-.62.53-3.01,1.85-3.11,2-.14.22-.03,1.7-.16,2.33-.6,2.9-4.01,5.38-6.71,6.15-1.17.33-2.35.27-3.41.79-2.99,7.97-8.9,15.09-16.8,18.49l30.07,8.64c.9.43,2.22,1.85,2.42,2.83l.07,52.66c-1.33,12.89.84,27.06-.27,39.85-.23,2.66-1.63,5.3-4.21,6.28l-95.66,38.17c-8.31,2.32-17.98-5.57-25.17-9.5-14.34-7.82-28.83-15.37-43.14-23.25-5.67-3.12-12.51-6.53-17.85-9.96-2.17-1.4-3.02-2.76-3.25-5.41-.76-8.8.09-19.55.02-28.6-.17-21.61-.49-43.31-.21-64.96.43-1.06.95-2.13,1.95-2.77l26.34-6.07c-7.85-9.55-9.05-25.73-.53-35.27.47-.53,2.09-1.7,2.23-1.97.47-.89.5-3.75.74-5.02C35.22,22.24,54.02,5.41,76.18,1.08c23.11-4.51,48.24,5.11,55.38,28.87,13.49,4.27,18.55,21.95,13.19,34.11-.7,1.6-2.83,4.25-3.14,5.52-.39,1.61-.37,3.89-.66,5.63-.3,1.75-.73,3.49-1.24,5.19ZM127.11,27.44c-3.64-8.76-10.86-15.88-19.51-19.71-30.3-13.41-69.13,6.94-73.94,39.9l4.96-.55c2.79-15.28,13.59-28.66,27.49-35.33,14.16-6.8,32.22-8.29,45.9.48,6.35,4.07,9.52,10.36,15.09,15.21ZM112.67,18.26c-6.14-7.24-17.31-9.16-26.39-8.66-18.54,1.01-36.88,15.11-43.1,32.46-.35.99-1.78,5.24-1.64,5.96.04.19.46.56.66.14,8.22-23.85,30.84-40.02,56.62-35.06,5,.96,9.32,3.01,13.86,5.16ZM168.58,34c.31-6.44.62-16.31-3.19-21.85-1.6-2.33-6.17-3.33-5.98.18.11,2.03,1.68,6.02,2.17,8.34.95,4.54,1.46,9.21,1.49,13.85,1.8-.29,3.66-.82,5.51-.52ZM175.15,61.01c8.79-.6,14.93-6.66,16.01-15.34.37-3-.07-6.16.33-9.11.67-4.91,4.58-11.23,5.15-16.09.26-2.2.33-5.34-2.71-5.07-1.26.11-2.54,3.36-3.09,4.53-.5,1.07-3.14,7.23-3.05,7.85.11.77,1.08,1.92,1.23,3.23.63,5.29-1.62,14.45-7.75,15.54-1.56.28-2.49-.21-3.71-.18s-.1,1.06.07,1.52c.92,2.43,1.23,5.35-1.06,7.08.42-2.77-.18-5.17-2.02-7.29-2.77.22-5.72.82-7.7-1.62-.22-.27-1.4-2.3-.78-2.1,3.21,2.88,12.55,1.1,9.55-4.29-2.85-5.12-17.38-3.4-18.09,4.41-.59,6.46,6.62,13.96,12.87,14.83.18.67-.43.6-.91.78-3.76,1.43-5.98-.68-9.06-2.36-.98,3.2,2.22,6.23,4.74,7.71,3.94,2.31,11.32,3.68,14.67-.25.32-.37,1.68-2.08.67-2.22-2.16-.3-2.78.11-5.01-1.02-.27-.14-.5.14-.37-.55ZM170.69,33.99c2.42.32,4.56,1.38,6.42,2.89,1.73-2.46,1.25-9.08-2.39-9.43-3.4-.32-3.74,4.12-4.03,6.53ZM178.56,44.22c5.88.17,8.24-7.7,7.59-12.43-.36-2.65-3.51-4.56-5.73-2.87.65,3.05.71,5.73-.15,8.75-.26.93-.94,1.97-1.12,2.81-.25,1.14-.03,2.54-.58,3.74ZM60.17,29.54c-.22-.2-2.18,1.32-2.49,1.58-3.83,3.23-8.29,10.7-10.05,15.4-.88,2.35-2.37,5.43-.2,7.41,2.35-8.97,6.56-17.44,12.73-24.38ZM114.24,37.67c.2-.2-1.45-2.13-1.7-2.37-5-4.85-12.57-3.29-13.52,3.94l2.9-3.26c4.16-2.95,8.66-1,12.32,1.69ZM141.54,64.41c2.76-6.41,2.61-13.03.27-19.54-1.78-4.93-5.47-10.72-11.03-11.66,5.38,6.66,8.46,14.88,9.9,23.27l.86,7.92ZM62.54,34.52l-3.06,2.19c-4.94,5.98-8.94,13.51-9.28,21.41.76.15.42-.22.59-.58,3.78-7.71,5.94-16.4,11.75-23.02ZM86.42,39.5c.12-.49-.27-.62-.52-.92-5.61-6.68-14.65-2.56-14.96,5.64.63-.44.72-1.52,1.09-2.18,3.28-5.78,9.16-5.81,14.39-2.54ZM55.18,59.43l5.29-12.94,4.42-7.77c-5.77,4.11-8.62,11.47-9.97,18.23l.26,2.49ZM117.4,67.82c.5-.11.52-.66.66-1.05,2.45-7.08.07-22.03-6.87-26.18-8.01-4.78-12.96,5.44-13.5,11.99l-4.67.26c-2.47-10.23-14.52-15.21-19.68-3.73-3,6.66-2.71,17.08,1.27,23.3-6.94,2.68-6.3,9.95-1.17,14.28.84.71,2.48,1.44,3.01,2.23.7,1.04,1.08,3.28,1.71,4.59,5.34,11.21,19.97,12.71,27.94,3.27,1.18-1.39,2.21-3.72,3.28-4.86.7-.74,2.35-1.33,3.27-1.98,4.27-3,7.58-9.02,6.78-14.33-.07-.49-.75-2.46-1.12-2.56-.53-.15-1.37,2.67-1.97,3.01-3.54,4.75-11.47,6.66-16,2.36-.32-.79,1.91-.13,2.22-.12,3.89.16,8.45-.41,10.9-3.81,1.66-2.3,1.56-5.84-.78-7.61-3.5-2.65-8.82.41-11.68,2.77-.43.35-2.67,2.93-3.02,2.61-1-3.33,2.46-5.41,4.66-7.2-1.35-3.7-2.57-12.17-.52-15.53,3.11-5.1,8.78.67,8.9,4.79l-4.9,3.92,5.46,2.53.16,2.6c2.65.32,4.92,1.8,5.66,4.44ZM59.64,59.95l6.56-15.73c-4.4,3.63-6.74,9.73-7.09,15.34-.03.52.06.41.52.39ZM36.02,88.53c14.45,4.19,13.71-15.86,11.42-24.64-1.92-7.33-8-18.71-16.4-10.62,6.27.96,9.08,7.24,10.32,12.76,1.49,6.68,2.15,18.37-4.96,21.95-.28.14-.49-.14-.37.55ZM29.93,56.07c-1.91.24-3.3,3.23-3.8,4.88-1.67,5.46-.97,12.61,1.11,17.88,1.27,3.21,4.39,8.62,8.51,5.89,4.73-3.14,3.32-16.08,1.71-20.82-.95-2.79-4.02-8.28-7.53-7.83ZM114.77,97.19c5.48-4.23,10.12-10.92,9.97-18.09l-4.68,9.61-5.29,8.48ZM118.19,100.07c6.52-4.57,10.94-12.36,10.76-20.45l-5.64,12.59-5.12,7.86ZM133.41,80.67c-.75-.14-.42.2-.6.57-1.91,4.16-3.05,8.64-5.08,12.77-1.62,3.28-3.71,6.28-5.87,9.21l3.69-2.74c3.77-4.44,6.89-10.45,7.57-16.3.14-1.17-.21-2.4.3-3.5ZM34.97,91.42l-3.51-2.09-27.6,6.29c-.41.09-.46-.18-.39.52l27.93,11.3c1.99-4.79,5.29-8.75,9.37-11.93l5.49-3.56c-4.72,1.45-9.47,4.13-12.45,8.15-.99,1.33-1.6,2.88-2.67,4.15l-19.79-7.84,23.62-4.99ZM186.69,100.6l-34.32-9.64c-5.37,1.31-10.95,1.59-16.44.97-3,6.66-8.02,12.12-12.76,17.58l3.01-2.1c4.4-3.82,8.12-8.58,10.54-13.9,3.95.51,7.77.29,11.67-.39,8.26,2.83,18.11,4.1,26.18,7.15.33.13.77.15.84.6l-78.99,18.9.24,3.65,90.03-22.81ZM55.71,98.5c-4.34,1.12-8.57,4.16-11.42,7.6-.98,1.18-2.73,3.47-1.59,5s6.66,3.15,7.23.51l-5.51-2.37c1.36-3.66,4.82-6.23,7.79-8.6l3.49-2.14ZM13.19,107.68v-4.06l-9.97-4.06v3.67l9.97,4.46ZM171.21,112.13l15.41-4.05-.19-3.82-15.22,3.93v3.93ZM16.07,104.79v4.2l13.28,5.75.9.02.26-3.93-14.44-6.04ZM57.81,116.2c-.08,1.73,0,3.51,0,5.24,0,.62,1.13,3.07,1.58,3.67,1.95,2.65,5.74,3.77,8.9,3.25.06-.81.15-1.79.49-2.53.16-.35.02-.42.58-.33.29,1.22.92,2.25,1.05,3.54.28,2.68-1.41,7.87,1.18,9.57,3.14,2.05,5.37-.58,6.29-3.42,1.12-3.43,1.1-7.37-.26-10.74-.36-.9-2.42-3.67-1.46-4.35,1.64-.52,2.74,1.13,3.47,2.33,2.4,3.92,2.69,9.51,1.27,13.81,6.45-.09,6.26-7.98,5.44-12.64-.47-2.65-1.73-5.01-2.55-7.54,2.78.51,4.42,3.5,5.17,5.97.25.82.86,3.14.86,3.86v5.24c0,.06-.39.29-.26.39,4.11-.92,4.43-7.09,3.82-10.5-1.67-9.41-8.97-14.8-18.4-14.16-.34.02-3.5.41-3.01.79,2.75.26,6.01,2.44,6.56,5.25l-4.39-2.56c-3.32-1.38-7.22-1.46-10.48.15-.81.4-3.4,2.71-3.63,2.67-.7-.15-.22-1.26-.06-1.63,1.15-2.71,4.87-4.06,7.28-5.31-4.52-2.44-10.55.35-13.5,4.08-4.38,5.55-4.68,16.32,3.78,17.81-.36-1.65-1.44-2.66-1.72-4.44-.41-2.58-.21-6.03,1.85-7.88.8-.06.13.27.13.39ZM13.19,110.56l-9.97-4.46v3.93l9.97,4.72v-4.2ZM111.36,123.15v3.8c0,.1-.52.25.13.65l56.42-14.38.42-4.09-56.96,14.02ZM171.21,115.54v4.2l15.37-4.18.12-3.68-15.49,3.67ZM16.07,112.13v3.93l9.05,4.2,1.72-3.28-10.76-4.86ZM13.19,118.16l-9.97-4.72c-.08,6.35.1,12.57.39,18.88l9.58,5.24v-19.4ZM168.32,120.39v-4.06l-13.91,3.67c.67.48,2.55,3.38,3,3.4l10.92-3.01ZM33.23,120.17c-1.01-.89-.72-1.85-2.79-1.42-3.81.8-3.45,8.02-2.25,10.78,2.29,5.3,11.1,9.15,16.32,11.23,3.31,1.32,5.87,2.57,8.06-1.22,1.24-2.14,1.55-7.87.27-9.92-.15-.25-1.07-.76-1.46-1.23-.74-.88-1.49-1.8-2.02-2.83-5.87.06-11.7-1.49-16.13-5.39ZM171.21,122.88v19.14l15.11-4.97c.36-5.02-.08-10.08.1-15.1.01-.39.59-3.02.14-3.01l-15.35,3.94ZM16.07,119.48v4.33c0,.07.81.76,1.01,1.09.9,1.53,1.73,3.12,2.57,4.68-1.23,1.47-2.04,3.39-3.59,4.51v3.22s5.25-5.24,5.25-5.24l5.42,10.62c-.02.38-4.85,5.87-5.15,5.64l-5.52-10.75v5.64c0,.4,3.87,5.57,3.89,6.87l-3.88,4.67.06,8.85,4.33,8.2-2.95,3.28,2.37,1.28,1.96-2.07c.55,2.72,2.13,4.35,4.73,5.24l-3.11-6.91,5.08-5.94,5.38,10.36-3.93,4.19,2.19,1.14,2.93-2.84c.62.01,2.8,5.41,3.35,5.96.45.45,2.2.88,2.81,1.38-.86-3.32-2.56-6.31-4.13-9.31,1.7-1.59,3.17-3.45,4.8-5.09.22-.22.23-.38.64-.28l5.25,10.63c-.02.83-4.27,3.84-4.19,5.36l2.37.93,3.4-3.81c2.04,3.39,2.68,7.89,6.96,9.17.37.11.47-.03.38-.38l-5.51-10.76c0-.21,2.25-2.76,2.61-3.15.39-.41,2.55-2.73,2.89-2.48l6.31,12.22c.06,1.13-4.04,3.98-4.72,5.22l2.1,1.04,4.19-3.53,2.37,4.72v-4.85c0-.09-.96-1.01-.96-1.57s.83-.93.95-1.58c.18-.95-.12-2.27,0-3.27l-2.09,2.1-6.49-12.72,4.78-5.11,4.07,7.6v-5.38c0-.55-2.15-3.37-2.32-4.24l2.32-2.84v-8.38c-.76-1.69-4.11-5.73-4.2-7.37-.08-1.52,3.57-3.64,4.06-5.1.35-1.04.05-2.31.14-3.4-.41-.08-.61.04-.93.25-1.5.97-2.97,3.64-4.31,4.87-.25.24-.38.48-.79.38-.6-2.29-4.47-6.17-4.49-8.25,0-.35.18-.61.28-.92h-.78s-1.22,3.67-1.22,3.67l4.58,7.7-2.98,3.58c-1.23-2.81-3.8-5.11-4.33-8.13l-2.88.79,5.18,9.05-4.91,5.37-5.22-9.88c-.05-.54,2.97-3.05,3.51-3.76.2-.26.51-.33.39-.79l-3-.55c-.07.59-1.56,2.45-2.08,2.36-1.55-1.14-2.09-3.06-2.94-4.69l-3.53-1.85,4.39,8.52-5.05,5.63-6.1-10.88,4.39-4.58-2.74-1.33-3.03,3.04-5.74-10.29c-.19-.97,1.86-1.89,2-2.59.15-.75-.92-3.61-.49-4.79l-3.12-1.08,2.05,3.5-2.04,2.27c-1.29-2.38-2.53-4.88-3.99-7.16-.15-.23-.92-1.63-1.26-1.23ZM148.76,121.45c-6.34,1.85-13.63,2.87-19.82,4.97-9.58,3.25-10.77,18.45,1.18,17.43,3.36-.28,17.11-4.16,19.8-5.92,6.33-4.13,7.64-14.98-1.16-16.49ZM108.21,123.93l-11.79,2.9c-.03,1.76-.69,3.36-1.6,4.83l13.39-3.27v-4.46ZM111.1,139.01v3.8c.62-.46,1.03-1.4,1.6-1.94.81-.76,1.87-1.25,2.85-1.73l5.5,6.2-6.16,8.75-3.8-3.93v4.33l2.36,1.71c-.08.65-2.36,3.07-2.36,3.27v4.59l4.33-6.03,8.29,6.97-6.98,10.59-5.64-4.98v3.8l4.2,3.42c-.29.96-4.2,5.65-4.2,6.02v4.33l6.17-8.65,8,6.94-5.77,9.05c.15.14,3.53-1.09,3.79-1.32,1.08-.97,2.57-4.42,3.56-5.75l4.11,3.08,2.97-.99-5.19-4.84,6.64-10.1,7.18,6.2-4.44,7.17c1.06-.58,3.53-.9,4.34-1.56.59-.48,1.54-2.87,1.96-3.68l2.54,2.06,2.96-.75c.13-.51-.21-.51-.44-.74-.56-.56-3.54-2.75-3.46-3.28l6.53-10.67c.38-.1.44.1.66.25.54.37,2.18,1.94,2.75,2.49,1.34,1.3,2.33,2.98,3.96,3.96l-3.17,5.22c-.04.2.25.17.39.13.39-.12,2.83-1.07,3.01-1.19.51-.36,1.33-2.47,1.72-2.47,1.24,1.94,2.62,1.01,4.33.13l-2.81-2.62c-.07-.78,4.23-6.46,4.71-7.81.16-.46.27-.87.22-1.37l-.42-6.95-5.3-5.38,5.65-8.71v-6.18s-5.46-5.82-5.46-5.82l5.37-7.75.14-2.35-2.24.77-5.24,7.35c-.82-.75-2.16-2.02-1.98-3.26.11-.73,2.8-3.16,2.63-3.29l-3.56,1.03c-.33,2.06.24,4.19-.65,6.15l1.81,1.81-6.66,10.14c-.82-1.01-2.3-1.33-2.23-2.88l-3.67,1.05,4.16,4.27-6.92,10.66-6.92-6.46,4.42-6.91c-.16-.13-3.65.79-4.01,1.04-.68.45-2.09,3.08-2.56,3.94-.27.19-2.85-1.96-2.36-2.62l-4.46.52c.65,1.17,4.88,3.6,4.69,4.79l-7.19,10.94-8.24-7.24,6.8-9.4c-3.4-1.89-5.7-5.61-5.51-9.57l-7.35,2.23ZM111.1,135.47l7.61-1.97,2.37-4.97-9.98,2.49v4.46ZM66.96,132.89c-1.79-.22-4.65-2.15-6.19-2.35-.85-.11-3.03.96-4.27.47l.3,3.11,10.34,3.97c.83.25-.08-1.3-.11-1.72-.11-1.16.07-2.33-.06-3.48ZM108.21,131.8l-20.74,5.24v4.72l20.74-5.64v-4.33ZM13.19,160.9v-19.53l-9.71-5.64v19.93l9.71,5.24ZM84.32,139.14c-.76.11-1.46.45-2.23.52s-2.6-.3-2.72-.23c-.09.05-1.18,1.71-1.09,1.81l6.04.79v-2.88ZM108.21,139.67l-20.74,5.24v19.8c0,.06-.39.3-.26.39,7.17-1.1,14.02-4.05,21-6.03v-19.4ZM186.43,140.45l-15.22,4.98v18.88l15.22-5.24v-18.62ZM84.32,145.43c-4.79-.1-9.28-2.11-13.92-3.03l-.22,18.47c4.7,1.38,9.14,4.1,14.14,4.22v-19.67ZM13.19,173.23v-8.52l-9.71-5.64v8.26c1.03.93,2.27,1.59,3.43,2.34.58.37,6.04,3.83,6.28,3.56ZM108.21,162.48l-20.72,6.04-.27,22.54,20.69-7.65.3-20.93ZM186.43,162.74l-15.22,5.11v9.31l15.22-5.24v-9.18ZM84.29,168.81c-4.7-.75-9.09-2.52-13.49-4.23-.59-.1-.63,1.29-.66,1.69-.5,6.16.36,13.02.05,19.25l13.75,5.28.36-21.99ZM13.19,176.9c-.38-.03-.73-.19-1.06-.38-1.5-.87-7.13-4.7-8.26-4.87-.53-.08-.34.04-.39.39-.24,1.75.23,3.59.27,5.24.1,3.87-.37,8.34-.02,12.08.04.42.04.69.21,1.1.7,1.73,7.48,4.37,9.25,5.57v-19.14ZM171.21,180.57v20.45c3.76-1.8,7.96-2.92,11.73-4.67,4.44-2.07,3-2.3,3.22-6.74.04-.7.26-1.33.29-2.07.13-4.06-.12-8.15-.01-12.2l-15.22,5.24ZM67,202.86l-50.66-24.25v19.14l50.66,27.66v-22.55ZM168.06,181.88l-56.96,19.93v23.07l56.96-22.55v-20.45ZM107.95,186.86l-20.74,7.34v11.01l20.74-7.6v-10.75ZM84.06,205.48v-10.88l-13.91-5.38v10.62c1.38,1.24,13.26,6.29,13.91,5.64ZM111.1,196.56c.78-.09,1.74,1.16,2.23,1.21.28.03,2.5-.89,2.49-1.08l-4.72-3.8v3.67ZM107.95,201.28l-20.73,7.35c-.1,8.47-.42,16.93-.27,25.42l3.4-.67,17.6-7.33v-24.78ZM70.15,203.64v23.6c4.5,2.27,8.62,5.82,13.65,6.82.06-1.44-.07-2.9,0-4.34.26-5.74.97-14.67.29-20.19-.04-.28.02-.6-.26-.79-4.8-.77-9.36-2.94-13.67-5.1ZM84.06,78.83c-1.04-.56-2.08-.16-3.15,0,5.55,5.53,14.77,7.31,22.31,5.64,1.03-.23,4.31-1.54,4.84-1.46.22.03.4.09.54.27,1.59,1.58-2.13,7.58-3.23,9.11-4.3,5.98-9.86,8.65-17.12,5.71-6.98-2.83-9.34-9.86-9.46-16.91l-2.36,1.57c-.57-3.64,2.95-6.22,6.37-5.45.69.15,1.25.79,1.23,1.52ZM93.51,93.26c-.99-1.04-1.43-2.34-2.62-3.28-2.05-1.63-4.9-2.02-7.33-1.15.75,5.4,8.34,8.54,13.16,7.25,2.38-.64,1.99-1.22.84-3.05-1.05-1.68-2.97-3.41-5.1-3.17.7.98.99,2.21,1.05,3.41ZM89.18,74.31c1.64-.95-.31-1.88-.4-2.69-.07-.68.71-2.91.79-3.93.05-.64.13-2.87-.12-3.28l-5.38-2.22,4.2-4.2c-.53-3.13-3.25-8.37-7.14-6.86-3.08,1.19-2.97,5.72-2.85,8.45.17,3.8,1.23,7.49,2.64,10.99l-2.37,1.18c3.66.27,7.36.83,10.63,2.56ZM23.16,151.07l5.91,11.14c.83-.89,5.14-4.97,5.06-5.85l-5.85-10.66-5.12,5.37ZM27.27,163.92l-5.46-10.45-.61-.43-4.89,5.11,5.54,11.67,5.42-5.9ZM49.13,164.22c-1.72,1.82-3.12,4.02-4.94,5.77l5.74,10.84,5.18-5.9-5.44-10.89c-.36-.07-.33-.05-.54.17ZM33.13,161.55c-.38.39-2.6,2.92-2.63,3.16l5.13,10.35,5.29-5.64-5.16-10.09c-.34-.25-2.26,1.83-2.63,2.22ZM42.19,152.25c-.69.48-4.84,4.74-4.8,5.33l5.2,9.88,5.47-5.67-5.21-9.79c-.4-.11-.43.11-.66.26ZM57.42,172.45c.55-.38,4.32-4.69,4.29-5.07l-5.6-10.41-4.83,5.15,5.49,10.58c.4.11.43-.1.66-.26ZM57.88,155l5.83,10.62c.81-1.7,3.42-2.33,3.01-4.3l-5.5-9.85-3.34,3.53ZM142.01,160.25l-7.28-6.68-7.07,10.85c.07.39,5.02,4.93,5.75,5.55.27.23,1.61,1.35,1.84,1.18l6.77-10.88ZM119,177.25l7.72,6.71,6.64-10.08-7.44-6.94-6.93,10.32ZM137.11,173.06l6.92,6.2,6.68-10.84-6.66-6.2-6.93,10.85ZM154.48,167.59l6.88,6.94,6.44-10.6c-.06-.74-1.21-1.21-1.73-1.71-1.67-1.65-3.3-3.35-4.98-4.98l-6.62,10.36ZM158.84,155.3l-6.27-6.46-6.57,10.62c0,.77,5.61,5.57,6.56,6.42l6.28-10.58ZM167,142.68c-.02-.94-5.39-4.97-6.17-6.15l-6.39,9.87,6.26,6.38,6.3-10.1ZM64.9,112.79c-.11.59.26.37.65.39,1.28.08,2.4-.08,3.61.59l3.35,2.29c1.77-3.47-6.65-5.61-7.61-3.27ZM127.39,130.12c-4.19,2.49-4.53,10.25.43,11.06,2.17.35,10.63-2.15,13.25-2.9,2.92-.83,8.09-1.78,9.61-4.56,2.15-3.93,2.82-9.84-3.42-9.19-3.19.33-17.35,4.09-19.87,5.59ZM30.76,121.72c-1.36,3.47.22,8.72,3.16,11,1.4,1.09,11.43,5.9,13.13,6.29,2.46.56,3.53-.6,3.87-2.95.49-3.38-.33-7.14-3.87-8.32-5.09-1.7-9.37-1.8-14.35-4.81-.57-.34-1.33-.63-1.41-1.35l-.53.15Z"/>
        <path class="cls-3" d="M37.46,63.9c-.95-2.79-4.02-8.28-7.53-7.83-1.91.24-3.3,3.23-3.8,4.88-1.67,5.46-.97,12.61,1.11,17.88,1.27,3.21,4.39,8.62,8.51,5.89,4.73-3.14,3.32-16.08,1.71-20.82Z"/>
        <path class="cls-3" d="M31.04,53.27c6.27.96,9.08,7.24,10.32,12.76,1.49,6.68,2.15,18.37-4.96,21.95-.28.14-.49-.14-.37.55,14.45,4.19,13.71-15.86,11.42-24.64-1.92-7.33-8-18.71-16.4-10.62Z"/>
        <path class="cls-3" d="M66.12,11.75c14.16-6.8,32.22-8.29,45.9.48,6.35,4.07,9.52,10.36,15.09,15.21-3.64-8.76-10.86-15.88-19.51-19.71-30.3-13.41-69.13,6.94-73.94,39.9l4.96-.55c2.79-15.28,13.59-28.66,27.49-35.33Z"/>
        <path class="cls-3" d="M141.54,64.41c2.76-6.41,2.61-13.03.27-19.54-1.78-4.93-5.47-10.72-11.03-11.66,5.38,6.66,8.46,14.88,9.9,23.27l.86,7.92Z"/>
        <path id="tongue" class="cls-4" d="M92.46,89.85c.7.98.99,2.21,1.05,3.41-.99-1.04-1.43-2.34-2.62-3.28-2.05-1.63-4.9-2.02-7.33-1.15.75,5.4,8.34,8.54,13.16,7.25,2.38-.64,1.99-1.22.84-3.05-1.05-1.68-2.97-3.41-5.1-3.17Z"/>
        <path class="cls-1" d="M47.64,46.52c-.88,2.35-2.37,5.43-.2,7.41,2.35-8.97,6.56-17.44,12.73-24.38-.22-.2-2.18,1.32-2.49,1.58-3.83,3.23-8.29,10.7-10.05,15.4Z"/>
        <path class="cls-1" d="M62.54,34.52l-3.06,2.19c-4.94,5.98-8.94,13.51-9.28,21.41.76.15.42-.22.59-.58,3.78-7.71,5.94-16.4,11.75-23.02Z"/>
        <path class="cls-1" d="M64.9,38.72c-5.77,4.11-8.62,11.47-9.97,18.23l.26,2.49,5.29-12.94,4.42-7.77Z"/>
        <path class="cls-1" d="M59.64,59.95l6.56-15.73c-4.4,3.63-6.74,9.73-7.09,15.34-.03.52.06.41.52.39Z"/>
        <path class="cls-1" d="M132.81,81.24c-1.91,4.16-3.05,8.64-5.08,12.77-1.62,3.28-3.71,6.28-5.87,9.21l3.69-2.74c3.77-4.44,6.89-10.45,7.57-16.3.14-1.17-.21-2.4.3-3.5-.75-.14-.42.2-.6.57Z"/>
        <path class="cls-1" d="M128.94,79.62l-5.64,12.59-5.12,7.86c6.52-4.57,10.94-12.36,10.76-20.45Z"/>
        <path class="cls-1" d="M120.07,88.71l-5.29,8.48c5.48-4.23,10.12-10.92,9.97-18.09l-4.68,9.61Z"/>
        <path id="eyebrow-right" class="cls-1" d="M114.24,37.67c.2-.2-1.45-2.13-1.7-2.37-5-4.85-12.57-3.29-13.52,3.94l2.9-3.26c4.16-2.95,8.66-1,12.32,1.69Z"/>
        <path id="eyebrow-left" class="cls-1" d="M85.9,38.59c-5.61-6.68-14.65-2.56-14.96,5.64.63-.44.72-1.52,1.09-2.18,3.28-5.78,9.16-5.81,14.39-2.54.12-.49-.27-.62-.52-.92Z"/>
        <path class="cls-1" d="M74.99,106.88c-.34.02-3.5.41-3.01.79,2.75.26,6.01,2.44,6.56,5.25l-4.39-2.56c-3.32-1.38-7.22-1.46-10.48.15-.81.4-3.4,2.71-3.63,2.67-.7-.15-.22-1.26-.06-1.63,1.15-2.71,4.87-4.06,7.28-5.31-4.52-2.44-10.55.35-13.5,4.08-4.38,5.55-4.68,16.32,3.78,17.81-.36-1.65-1.44-2.66-1.72-4.44-.41-2.58-.21-6.03,1.85-7.88.8-.06.13.27.13.39-.08,1.73,0,3.51,0,5.24,0,.62,1.13,3.07,1.58,3.67,1.95,2.65,5.74,3.77,8.9,3.25.06-.81.15-1.79.49-2.53.16-.35.02-.42.58-.33.29,1.22.92,2.25,1.05,3.54.28,2.68-1.41,7.87,1.18,9.57,3.14,2.05,5.37-.58,6.29-3.42,1.12-3.43,1.1-7.37-.26-10.74-.36-.9-2.42-3.67-1.46-4.35,1.64-.52,2.74,1.13,3.47,2.33,2.4,3.92,2.69,9.51,1.27,13.81,6.45-.09,6.26-7.98,5.44-12.64-.47-2.65-1.73-5.01-2.55-7.54,2.78.51,4.42,3.5,5.17,5.97.25.82.86,3.14.86,3.86v5.24c0,.06-.39.29-.26.39,4.11-.92,4.43-7.09,3.82-10.5-1.67-9.41-8.97-14.8-18.4-14.16ZM72.51,116.07l-3.35-2.29c-1.21-.68-2.33-.51-3.61-.59-.39-.03-.76.2-.65-.39.96-2.33,9.38-.19,7.61,3.27Z"/>
        <path class="cls-1" d="M186.15,31.79c-.36-2.65-3.51-4.56-5.73-2.87.65,3.05.71,5.73-.15,8.75-.26.93-.94,1.97-1.12,2.81-.25,1.14-.03,2.54-.58,3.74,5.88.17,8.24-7.7,7.59-12.43Z"/>
        <path class="cls-1" d="M174.72,27.46c-3.4-.32-3.74,4.12-4.03,6.53,2.42.32,4.56,1.38,6.42,2.89,1.73-2.46,1.25-9.08-2.39-9.43Z"/>
        <path class="cls-1" d="M163.07,34.52c1.8-.29,3.66-.82,5.51-.52.31-6.44.62-16.31-3.19-21.85-1.6-2.33-6.17-3.33-5.98.18.11,2.03,1.68,6.02,2.17,8.34.95,4.54,1.46,9.21,1.49,13.85Z"/>
        <path class="cls-1" d="M193.94,15.39c-1.26.11-2.54,3.36-3.09,4.53-.5,1.07-3.14,7.23-3.05,7.85.11.77,1.08,1.92,1.23,3.23.63,5.29-1.62,14.45-7.75,15.54-1.56.28-2.49-.21-3.71-.18-1.21.03-.1,1.06.07,1.52.92,2.43,1.23,5.35-1.06,7.08.42-2.77-.18-5.17-2.02-7.29-2.77.22-5.72.82-7.7-1.62-.22-.27-1.4-2.3-.78-2.1,3.21,2.88,12.55,1.1,9.55-4.29-2.85-5.12-17.38-3.4-18.09,4.41-.59,6.46,6.62,13.96,12.87,14.83.18.67-.43.6-.91.78-3.76,1.43-5.98-.68-9.06-2.36-.98,3.2,2.22,6.23,4.74,7.71,3.94,2.31,11.32,3.68,14.67-.25.32-.37,1.68-2.08.67-2.22-2.16-.3-2.78.11-5.01-1.02-.27-.14-.5.14-.37-.55,8.79-.6,14.93-6.66,16.01-15.34.37-3-.07-6.16.33-9.11.67-4.91,4.58-11.23,5.15-16.09.26-2.2.33-5.34-2.71-5.07Z"/>
        <path class="cls-1" d="M119.43,75.63c-.07-.49-.75-2.46-1.12-2.56-.53-.15-1.37,2.67-1.97,3.01-3.54,4.75-11.47,6.66-16,2.36-.32-.79,1.91-.13,2.22-.12,3.89.16,8.45-.41,10.9-3.81,1.66-2.3,1.56-5.84-.78-7.61-3.5-2.65-8.82.41-11.68,2.77-.43.35-2.67,2.93-3.02,2.61-1-3.33,2.46-5.41,4.66-7.2-1.35-3.7-2.57-12.17-.52-15.53,3.11-5.1,8.78.67,8.9,4.79l-4.9,3.92,5.46,2.53.16,2.6c2.65.32,4.92,1.8,5.66,4.44.5-.11.52-.66.66-1.05,2.45-7.08.07-22.03-6.87-26.18-8.01-4.78-12.96,5.44-13.5,11.99l-4.67.26c-2.47-10.23-14.52-15.21-19.68-3.73-3,6.66-2.71,17.08,1.27,23.3-6.94,2.68-6.3,9.95-1.17,14.28.84.71,2.48,1.44,3.01,2.23.7,1.04,1.08,3.28,1.71,4.59,5.34,11.21,19.97,12.71,27.94,3.27,1.18-1.39,2.21-3.72,3.28-4.86.7-.74,2.35-1.33,3.27-1.98,4.27-3,7.58-9.02,6.78-14.33ZM81.12,51.12c3.9-1.51,6.61,3.73,7.14,6.86l-4.2,4.2,5.38,2.22c.25.41.17,2.64.12,3.28-.08,1.03-.86,3.26-.79,3.93.09.81,2.04,1.74.4,2.69-3.27-1.73-6.97-2.29-10.63-2.56l2.37-1.18c-1.41-3.5-2.47-7.19-2.64-10.99-.12-2.73-.23-7.26,2.85-8.45ZM105.38,92.4c-4.3,5.98-9.86,8.65-17.12,5.71-6.98-2.83-9.34-9.86-9.46-16.91l-2.36,1.57c-.57-3.64,2.95-6.22,6.37-5.45.69.15,1.25.79,1.23,1.52-1.04-.56-2.08-.16-3.15,0,5.55,5.53,14.77,7.31,22.31,5.64,1.03-.23,4.31-1.54,4.84-1.46.22.03.4.09.54.27,1.59,1.58-2.13,7.58-3.23,9.11Z"/>
      </g>
    </g>
  </g>
</svg>