<?xml version="1.0" encoding="UTF-8"?>
<svg id="Layer_2" data-name="Layer 2" xmlns="http://www.w3.org/2000/svg" viewBox="0 0 263.44 278.58">
  <defs>
    <style>
      .cls-1 {
        fill: #f8efdd;
      }

      .cls-2 {
        fill: #212121;
      }

      .cls-3 {
        fill: #428175;
      }

      .cls-4 {
        fill: #d17d34;
        stroke: #212121;
        stroke-linejoin: round;
        stroke-width: .5px;
      }

      .cls-5 {
        fill: #c65240;
      }
    </style>
  </defs>
  <g id="_1b" data-name="1b">
    <g id="bg_copy" data-name="bg copy">
      <g>
        <g>
          <path class="cls-4" d="M200.06,10.98c-2.04,1.97-3.03,6.95-4.27,9.54-.87-.05-1.7-.44-2.58-.43-.87.02-2.11.7-2.69.64-.45-.04-1.05-.73-1.57-.93-1.34-.52-2.64-.38-3.95.1-.26-4.24-.98-11.37-5.19-13.61-2.72-1.44-6.34-.75-6.98,2.6-.44,2.29,1.74,8.68,2.16,11.57.38,2.6.57,5.23.66,7.86-.11.56-.92.77-1.35,1.15-3.94,3.45-4.03,7.49-1.52,11.89.26.45,1.34,1.69,1.38,1.95.02.11-.72,1.34-.8,2.04-.35,3.18,1.17,5.92,3.76,7.68l.1.33c-2.49,7.11-10.02,11.94-17.58,10.57.4-1.34.75-2.72.98-4.11.23-1.38.22-3.19.52-4.46.24-1,1.93-3.11,2.48-4.37,4.24-9.63.23-23.63-10.44-27.01C147.52,5.15,127.62-2.47,109.32,1.11c-17.55,3.43-32.43,16.75-35.89,34.54-.2,1.01-.22,3.28-.59,3.98-.11.21-1.39,1.14-1.77,1.56-6.74,7.55-5.8,20.37.42,27.93l-20.86,4.81c-.79.51-1.2,1.35-1.54,2.2-.22,17.14.03,34.32.17,51.44.06,7.17-.61,15.68-.02,22.65.18,2.1.85,3.18,2.57,4.28,4.23,2.72,9.64,5.42,14.13,7.89,11.33,6.23,22.81,12.21,34.16,18.41,5.69,3.11,13.35,9.36,19.93,7.52l75.75-30.22c2.04-.78,3.15-2.87,3.34-4.97.87-10.13-.85-21.35.21-31.56l-.06-41.7c-.16-.77-1.2-1.9-1.92-2.24l-23.81-6.84c6.26-2.69,10.93-8.33,13.3-14.64.84-.41,1.77-.36,2.7-.62,2.13-.61,4.84-2.57,5.31-4.87.1-.5.02-1.67.13-1.85.08-.12,1.97-1.17,2.46-1.59,5.59-4.82,4.82-10.06,5.41-16.61.44-4.98,5.95-13.46,4.25-17.96-1.1-2.92-4.78-3.86-7.06-1.66Z"/>
          <g>
            <path class="cls-2" d="M75.86,105.35c1.11.86,9.05,4.68,10.39,4.98,1.95.44,2.8-.47,3.07-2.34.39-2.67-.26-5.66-3.06-6.59-4.03-1.35-7.42-1.43-11.36-3.81-.45-.27-1.05-.5-1.11-1.07l-.42.12c-1.08,2.75.17,6.9,2.5,8.71Z"/>
            <path class="cls-2" d="M169.82,118.11l-5.2,8.41c0,.61,4.44,4.41,5.2,5.08l4.97-8.38-4.96-5.12Z"/>
            <polygon class="cls-2" points="157.57 137.29 163.05 142.2 168.34 133.61 163.06 128.7 157.57 137.29"/>
            <path class="cls-2" d="M155.68,121.85l-5.6,8.59c.05.31,3.98,3.9,4.56,4.39.22.18,1.28,1.07,1.46.93l5.36-8.62-5.77-5.29Z"/>
            <polygon class="cls-2" points="143.23 140.61 149.34 145.92 154.6 137.94 148.72 132.44 143.23 140.61"/>
            <path class="cls-2" d="M180.51,128.71c-1.33-1.3-2.61-2.65-3.94-3.95l-5.24,8.2,5.45,5.49,5.1-8.39c-.05-.59-.96-.96-1.37-1.36Z"/>
            <polygon class="cls-2" points="65.78 121.43 61.91 125.48 66.3 134.72 70.6 130.05 66.27 121.78 65.78 121.43"/>
            <path class="cls-2" d="M181.24,113.23c-.02-.74-4.27-3.94-4.88-4.87l-5.06,7.82,4.96,5.05,4.99-8Z"/>
            <path class="cls-2" d="M165.61,98.86c-2.52.26-13.73,3.24-15.73,4.42-3.32,1.97-3.59,8.11.34,8.76,1.72.28,8.41-1.7,10.49-2.29,2.31-.66,6.4-1.41,7.61-3.61,1.7-3.11,2.23-7.79-2.71-7.28Z"/>
            <path class="cls-2" d="M186.86,56.14c.84-.41,1.77-.36,2.7-.62,2.13-.61,4.84-2.57,5.31-4.87.1-.5.02-1.67.13-1.85.08-.12,1.97-1.17,2.46-1.59,5.59-4.82,4.82-10.06,5.41-16.61.44-4.98,5.95-13.46,4.25-17.96-1.1-2.92-4.78-3.86-7.06-1.66-2.04,1.97-3.03,6.95-4.27,9.54-.87-.05-1.7-.44-2.58-.43-.87.02-2.1.7-2.69.64-.45-.04-1.05-.73-1.57-.93-1.34-.52-2.64-.38-3.95.1-.26-4.24-.98-11.37-5.19-13.61-2.72-1.44-6.34-.75-6.98,2.6-.44,2.29,1.74,8.68,2.16,11.57.38,2.6.57,5.23.66,7.86-.11.56-.92.77-1.35,1.15-3.94,3.45-4.03,7.49-1.52,11.89.26.45,1.34,1.69,1.38,1.95.02.11-.72,1.34-.8,2.04-.35,3.18,1.17,5.92,3.76,7.68l.1.33c-2.49,7.11-10.02,11.94-17.58,10.57.4-1.34.75-2.72.98-4.11.23-1.38.22-3.19.52-4.46.24-1,1.93-3.11,2.48-4.37,4.24-9.63.23-23.63-10.44-27.01C147.52,5.15,127.62-2.47,109.32,1.11c-17.55,3.43-32.43,16.75-35.89,34.54-.2,1.01-.22,3.28-.59,3.98-.11.21-1.39,1.14-1.77,1.56-6.74,7.55-5.8,20.37.42,27.93l-20.86,4.81c-.79.51-1.2,1.35-1.54,2.2-.22,17.14.03,34.32.17,51.44.06,7.17-.61,15.68-.02,22.65.18,2.1.85,3.18,2.57,4.28,4.23,2.72,9.64,5.42,14.13,7.89,11.33,6.23,22.81,12.21,34.16,18.41,5.69,3.11,13.35,9.36,19.93,7.52l75.75-30.22c2.04-.78,3.32-2.86,3.34-4.97.21-31.56-.1-20.25.21-31.56l-.06-41.7c-.16-.77-1.2-1.9-1.92-2.24l-23.81-6.84c6.26-2.69,10.93-8.33,13.3-14.64ZM111.85,110.66c.09-.05,1.57.24,2.15.18.61-.05,1.17-.32,1.77-.41v2.28s-4.78-.63-4.78-.63c-.07-.08.79-1.39.86-1.43ZM104.74,113.02c3.68.72,7.24,2.32,11.03,2.4v15.57c-3.96-.1-7.48-2.26-11.2-3.35l.17-14.62ZM61.73,86.55v-3.32l11.43,4.78-.21,3.11h-.71s-10.51-4.57-10.51-4.57ZM70.25,92.89l-1.36,2.6-7.16-3.33v-3.11l8.52,3.85ZM73.1,94.28c1.64-.34,1.41.42,2.21,1.13,3.51,3.09,8.13,4.32,12.77,4.27.42.81,1.01,1.55,1.6,2.24.31.37,1.04.78,1.16.97,1.01,1.62.77,6.16-.21,7.85-1.74,3-3.76,2.01-6.38.96-4.13-1.65-11.11-4.7-12.92-8.89-.95-2.19-1.24-7.91,1.78-8.54ZM90.35,79.95c-2.35,1.88-5.09,3.91-6.17,6.81l4.36,1.87c-.46,2.09-4.87.75-5.73-.4-.9-1.21.48-3.03,1.26-3.96,2.26-2.72,5.6-5.13,9.04-6.02l-2.77,1.7ZM52.06,75.97l21.85-4.98,2.78,1.65-18.71,3.95,15.67,6.21c.85-1,1.33-2.23,2.12-3.29,2.36-3.18,6.11-5.31,9.85-6.45l-4.35,2.82c-3.23,2.52-5.84,5.65-7.42,9.45l-22.12-8.95c-.05-.55-.01-.34.31-.41ZM59.44,155.49c-1.4-.95-6.77-3.04-7.33-4.41-.13-.33-.14-.54-.17-.87-.27-2.97-.34-6.19-.42-9.25-.03-1.3.03-3.08.22-4.47.04-.28-.11-.37.31-.31.89.13,5.36,3.16,6.54,3.85.26.15.53.27.84.3v15.16ZM59.44,137.42c-.19.21-4.52-2.53-4.97-2.82-.92-.59-1.9-1.12-2.72-1.85v-6.54l7.69,4.46v6.75ZM59.44,127.66l-7.69-4.15v-15.78l7.69,4.46v15.47ZM59.44,109.18l-7.59-4.15c-.23-4.99-.37-9.93-.31-14.95l7.9,3.74v15.36ZM59.44,91.12l-7.9-3.74v-3.11l7.9,3.53v3.32ZM59.44,85.51l-7.9-3.53v-2.91l7.9,3.22v3.22ZM102.05,178.74l-40.12-21.9v-15.16l40.12,19.21v17.86ZM102.26,124.66v6.64s-1.83,2.25-1.83,2.25c.14.69,1.84,2.93,1.84,3.36v4.26l-3.22-6.02-3.79,4.04,5.14,10.07,1.66-1.66c-.09.8.14,1.84,0,2.59-.1.51-.75.82-.75,1.25,0,.45.76,1.17.76,1.25v3.84l-1.87-3.74-3.32,2.8-1.66-.83c.54-.98,3.79-3.24,3.74-4.13l-4.99-9.67c-.27-.2-1.98,1.64-2.29,1.97-.29.3-2.07,2.33-2.07,2.49l4.36,8.52c.07.28-.01.39-.3.3-3.4-1.01-3.9-4.57-5.51-7.26l-2.7,3.02-1.87-.74c-.06-1.21,3.31-3.59,3.32-4.25l-4.15-8.42c-.32-.08-.33.05-.5.22-1.29,1.3-2.46,2.78-3.8,4.03,1.24,2.38,2.59,4.75,3.27,7.37-.49-.4-1.87-.74-2.23-1.09-.44-.44-2.17-4.71-2.65-4.72l-2.32,2.25-1.73-.9,3.11-3.32-4.26-8.21-4.02,4.7,2.46,5.47c-2.05-.71-3.31-1.99-3.74-4.15l-1.55,1.64-1.88-1.01,2.34-2.59-3.43-6.49-.05-7,3.07-3.7c-.01-1.03-3.08-5.13-3.08-5.44v-4.46l4.37,8.51c.24.18,4.06-4.16,4.08-4.46l-4.29-8.41-4.15,4.15v-2.55c1.22-.89,1.86-2.41,2.83-3.57-.67-1.23-1.33-2.49-2.04-3.7-.15-.26-.8-.81-.8-.86v-3.43c.27-.31.88.79,1,.98,1.16,1.8,2.14,3.78,3.16,5.67l1.62-1.8-1.62-2.77,2.47.85c-.34.94.51,3.2.39,3.79-.11.55-1.73,1.28-1.58,2.05l4.54,8.15,2.4-2.4,2.17,1.05-3.48,3.63,4.83,8.62,4-4.46-3.48-6.75,2.8,1.46c.67,1.29,1.1,2.81,2.33,3.71.41.07,1.59-1.41,1.65-1.87l2.37.43c.09.36-.15.41-.31.62-.43.56-2.82,2.54-2.78,2.97l4.13,7.82,3.89-4.25-4.1-7.16,2.28-.62c.42,2.39,2.46,4.21,3.43,6.44l2.36-2.83-3.63-6.1.96-2.9h.62c-.08.24-.23.45-.22.73.01,1.65,3.08,4.72,3.55,6.54.33.07.43-.12.63-.3,1.06-.98,2.23-3.09,3.41-3.86.25-.17.41-.26.74-.2-.08.86.17,1.87-.11,2.69-.39,1.15-3.28,2.83-3.21,4.04.07,1.3,2.72,4.5,3.32,5.84ZM102.16,109.6l-8.19-3.14-.24-2.46c.98.38,2.71-.46,3.38-.37,1.23.16,3.49,1.68,4.9,1.86.1.91-.04,1.84.05,2.76.03.33.75,1.56.09,1.36ZM104.54,131.91c.03-.32.05-1.42.52-1.34,3.48,1.36,6.97,2.76,10.68,3.35l-.28,17.41-10.89-4.18c.25-4.93-.43-10.36-.04-15.24ZM115.56,154.34v8.62c-.52.52-9.92-3.48-11.02-4.46v-8.41l11.02,4.26ZM115.35,185.59c-3.98-.79-7.24-3.6-10.81-5.4v-18.69c3.41,1.71,7.02,3.43,10.82,4.04.22.15.18.4.21.63.55,4.37-.02,11.44-.23,15.99-.05,1.14.06,2.3,0,3.43ZM134.48,179.26l-13.94,5.81-2.69.53c-.11-6.73.14-13.42.22-20.13l16.41-5.82v19.62ZM134.48,156.73l-16.42,6.02v-8.72l16.42-5.81v8.51ZM134.44,145.49l-16.38,6.05.22-17.85,16.41-4.78-.24,16.58ZM134.69,126.21c-5.53,1.57-10.95,3.9-16.63,4.77-.1-.07.21-.26.21-.31v-15.68l16.42-4.15v15.36ZM134.69,108.04l-16.42,4.46v-3.74l16.42-4.15v3.43ZM134.69,101.92l-10.6,2.59c.72-1.16,1.24-2.43,1.27-3.82l9.34-2.3v3.53ZM182.08,160.47l-45.1,17.86v-18.27l45.1-15.78v16.19ZM136.97,155.9v-2.91l3.74,3.01c0,.15-1.75.87-1.97.85-.39-.04-1.15-1.03-1.77-.96ZM182.12,133.63c-.38,1.07-3.78,5.57-3.73,6.19l2.23,2.07c-1.35.7-2.45,1.44-3.43-.1-.32,0-.97,1.67-1.37,1.95-.14.1-2.07.85-2.38.95-.11.03-.34.06-.31-.1l2.51-4.13c-1.29-.77-2.07-2.11-3.13-3.14-.46-.44-1.75-1.68-2.18-1.97-.17-.12-.22-.28-.52-.2l-5.17,8.45c-.07.42,2.3,2.15,2.74,2.59.18.18.45.18.35.58l-2.35.59-2.01-1.63c-.33.65-1.08,2.54-1.55,2.92-.65.52-2.6.77-3.44,1.24l3.51-5.68-5.69-4.91-5.26,8,4.11,3.84-2.36.78-3.25-2.44c-.78,1.05-1.96,3.79-2.82,4.56-.2.18-2.89,1.16-3,1.05l4.57-7.16-6.34-5.5-4.88,6.85v-3.43c0-.29,3.09-4.01,3.33-4.77l-3.33-2.71v-3.01l4.47,3.94,5.53-8.38-6.56-5.52-3.43,4.77v-3.63c0-.16,1.81-2.07,1.87-2.59l-1.87-1.35v-3.43l3.01,3.11,4.88-6.93-4.35-4.91c-.78.38-1.62.77-2.26,1.37-.45.42-.78,1.17-1.27,1.54v-3.01l5.82-1.76c-.15,3.13,1.67,6.08,4.37,7.58l-5.38,7.45,6.53,5.74,5.69-8.66c.15-.94-3.2-2.86-3.72-3.79l3.53-.42c-.39.52,1.65,2.22,1.87,2.07.37-.68,1.49-2.76,2.02-3.12.29-.19,3.05-.92,3.18-.82l-3.5,5.47,5.48,5.11,5.48-8.44-3.3-3.38,2.91-.83c-.06,1.23,1.12,1.48,1.77,2.28l5.27-8.03-1.44-1.43c.71-1.56.25-3.24.52-4.87l2.82-.82c.13.1-2,2.02-2.09,2.6-.14.98.92,1.98,1.57,2.58l4.15-5.82,1.78-.61-.11,1.86-4.25,6.14,4.33,4.61v4.9s-4.47,6.9-4.47,6.9l4.2,4.26.33,5.5c.04.4-.05.72-.18,1.08ZM171.27,95.28l11.02-2.91v3.22l-8.64,2.38c-.35-.01-1.84-2.31-2.37-2.69ZM167.72,109.48c-2.13,1.39-13.02,4.46-15.68,4.69-9.46.8-8.52-11.23-.93-13.81,4.9-1.67,10.68-2.47,15.69-3.94,6.97,1.19,5.93,9.79.92,13.05ZM181.96,89.9l-44.67,11.39c-.51-.32-.1-.44-.1-.51v-3.01l45.11-11.11-.33,3.24ZM144.87,102.02l-1.88,3.94-6.02,1.56v-3.53l7.9-1.97ZM193.86,155.73c-2.98,1.39-6.31,2.28-9.29,3.7v-16.2l12.05-4.15.15,12.46c-.18,3.52.59,2.55-2.92,4.19ZM196.63,129.12v7.27l-12.06,4.15v-7.37l12.06-4.05ZM184.57,130.36v-14.95l12.06-3.94v14.74l-12.06,4.15ZM196.62,96.82c-.15,3.98.21,7.98-.08,11.96l-11.96,3.93v-15.16l12.16-3.12c.36-.01-.1,2.07-.11,2.38ZM196.74,91.75l-12.17,3.31v-3.32l12.26-2.91-.1,2.92ZM184.57,89.04v-3.11l12.05-3.11.15,3.02-12.2,3.21ZM196.83,79.91l-71.29,18.06-.19-2.89,62.54-14.97c-.06-.35-.41-.37-.67-.47-6.39-2.41-14.19-3.42-20.73-5.66-3.08.54-6.11.71-9.24.31-1.91,4.22-4.86,7.99-8.34,11.01l-2.38,1.67c3.75-4.32,7.73-8.65,10.1-13.92,4.35.49,8.77.27,13.02-.77l27.18,7.64Z"/>
            <path class="cls-2" d="M75.23,128.18c-.3.31-2.06,2.31-2.08,2.5l4.06,8.2,4.19-4.47-4.09-7.99c-.27-.2-1.79,1.45-2.08,1.76Z"/>
            <path class="cls-2" d="M71.39,115.62l-4.06,4.25,4.68,8.82c.66-.71,4.07-3.93,4.01-4.63l-4.63-8.44Z"/>
            <path class="cls-2" d="M82.93,120.6c-.31-.08-.34.08-.52.2-.55.38-3.83,3.75-3.8,4.22l4.12,7.82,4.33-4.49-4.13-7.76Z"/>
            <path class="cls-2" d="M89.6,128.63l4.35,8.38c.31.08.34-.08.52-.2.44-.3,3.42-3.71,3.39-4.01l-4.44-8.24-3.83,4.08Z"/>
            <path class="cls-2" d="M94.83,122.99l4.62,8.41c.64-1.34,2.71-1.84,2.38-3.41l-4.36-7.8-2.64,2.8Z"/>
            <path class="cls-2" d="M87.9,130.29c-1.36,1.44-2.47,3.18-3.91,4.57l4.55,8.59,4.1-4.67-4.31-8.62c-.29-.05-.26-.04-.43.13Z"/>
          </g>
          <g>
            <path class="cls-1" d="M108.38,84.88c-.27.02-2.78.32-2.38.63,2.18.21,4.76,1.93,5.2,4.15l-3.48-2.03c-2.63-1.09-5.71-1.15-8.3.12-.64.32-2.7,2.15-2.87,2.11-.55-.12-.18-.99-.05-1.29.91-2.15,3.86-3.21,5.76-4.21-3.58-1.93-8.35.28-10.69,3.23-3.47,4.4-3.7,12.93,3,14.1-.29-1.3-1.14-2.11-1.36-3.52-.32-2.05-.17-4.77,1.47-6.24.64-.05.11.21.1.31-.06,1.37,0,2.78,0,4.15,0,.49.9,2.43,1.25,2.91,1.55,2.1,4.55,2.98,7.05,2.58.05-.64.12-1.42.38-2,.13-.28.02-.33.46-.26.23.97.73,1.78.83,2.81.22,2.12-1.12,6.23.94,7.58,2.48,1.63,4.25-.46,4.98-2.71.89-2.72.87-5.84-.2-8.5-.29-.71-1.91-2.91-1.15-3.44,1.3-.41,2.17.9,2.75,1.85,1.9,3.11,2.13,7.53,1,10.93,5.11-.07,4.96-6.32,4.31-10.01-.37-2.1-1.37-3.97-2.02-5.97,2.2.41,3.5,2.77,4.1,4.73.2.65.68,2.49.68,3.06v4.15s-.31.23-.21.31c3.25-.73,3.5-5.62,3.03-8.31-1.32-7.45-7.1-11.72-14.57-11.21ZM106.41,92.16l-2.65-1.81c-.96-.53-1.85-.41-2.86-.47-.31-.02-.6.16-.51-.31.76-1.85,7.43-.15,6.02,2.59Z"/>
            <path class="cls-1" d="M196.4,25.42c-.29-2.1-2.78-3.61-4.54-2.27.52,2.42.56,4.54-.12,6.93-.21.74-.74,1.56-.89,2.23-.2.9-.03,2.01-.46,2.96,4.66.13,6.52-6.1,6.01-9.84Z"/>
            <path class="cls-1" d="M187.35,21.99c-2.69-.25-2.96,3.26-3.19,5.17,1.92.25,3.61,1.09,5.08,2.29,1.37-1.95.99-7.19-1.89-7.46Z"/>
            <path class="cls-1" d="M178.13,27.59c1.43-.23,2.9-.65,4.36-.41.25-5.1.49-12.91-2.53-17.3-1.27-1.85-4.88-2.64-4.73.15.09,1.61,1.33,4.77,1.72,6.61.75,3.59,1.16,7.29,1.18,10.97Z"/>
            <path class="cls-1" d="M202.57,12.44c-1,.09-2.01,2.66-2.44,3.59-.39.85-2.49,5.73-2.42,6.22.08.61.85,1.52.98,2.56.5,4.19-1.28,11.44-6.13,12.31-1.23.22-1.97-.17-2.94-.14-.96.02-.08.84.06,1.2.73,1.92.97,4.24-.84,5.61.34-2.2-.14-4.1-1.6-5.77-2.19.17-4.53.65-6.1-1.28-.17-.21-1.11-1.82-.62-1.66,2.55,2.28,9.93.87,7.56-3.4-2.26-4.06-13.76-2.69-14.32,3.49-.47,5.12,5.24,11.05,10.19,11.74.14.53-.34.48-.72.62-2.97,1.13-4.74-.54-7.17-1.87-.78,2.53,1.76,4.94,3.76,6.11,3.12,1.83,8.96,2.91,11.62-.2.25-.3,1.33-1.65.53-1.76-1.71-.24-2.2.09-3.97-.81-.22-.11-.4.11-.3-.43,6.96-.48,11.82-5.27,12.68-12.15.29-2.37-.05-4.87.26-7.21.53-3.89,3.62-8.89,4.08-12.74.21-1.75.26-4.23-2.14-4.02Z"/>
            <path class="cls-1" d="M143.57,60.13c-.06-.38-.6-1.95-.88-2.03-.42-.12-1.09,2.12-1.56,2.38-2.81,3.76-9.08,5.27-12.67,1.87-.26-.62,1.51-.1,1.76-.09,3.08.12,6.69-.32,8.63-3.02,1.31-1.82,1.23-4.62-.62-6.03-2.77-2.1-6.98.33-9.25,2.19-.34.28-2.12,2.32-2.4,2.07-.79-2.64,1.95-4.29,3.69-5.7-1.07-2.93-2.04-9.63-.41-12.3,2.47-4.04,6.95.53,7.05,3.79l-3.88,3.1,4.33,2.01.12,2.06c2.1.26,3.89,1.43,4.49,3.52.39-.09.41-.52.52-.83,1.94-5.61.05-17.45-5.44-20.73-6.34-3.79-10.26,4.31-10.69,9.49l-3.7.2c-1.96-8.1-11.5-12.04-15.58-2.95-2.37,5.28-2.15,13.53,1,18.45-5.5,2.12-4.99,7.88-.92,11.31.66.56,1.96,1.14,2.39,1.77.56.83.86,2.59,1.35,3.63,4.23,8.87,15.81,10.07,22.13,2.59.93-1.1,1.75-2.95,2.59-3.85.55-.59,1.86-1.05,2.59-1.57,3.38-2.38,6-7.14,5.37-11.35ZM113.23,40.73c3.08-1.19,5.24,2.95,5.66,5.43l-3.33,3.33,4.26,1.76c.2.32.14,2.09.1,2.6-.06.81-.68,2.58-.62,3.11.07.64,1.61,1.38.32,2.13-2.59-1.37-5.52-1.81-8.42-2.03l1.87-.94c-1.11-2.77-1.96-5.7-2.09-8.71-.1-2.16-.18-5.75,2.26-6.69ZM132.44,73.41c-3.4,4.73-7.81,6.85-13.55,4.52-5.52-2.24-7.4-7.81-7.49-13.39l-1.87,1.24c-.45-2.88,2.34-4.92,5.05-4.31.54.12.99.62.98,1.2-.82-.44-1.65-.12-2.49,0,4.4,4.38,11.69,5.79,17.67,4.46.82-.18,3.41-1.22,3.84-1.16.17.03.32.07.43.21,1.26,1.25-1.68,6-2.56,7.21Z"/>
            <g>
              <path class="cls-1" d="M86.72,37.09c-.7,1.86-1.88,4.3-.16,5.86,1.86-7.1,5.19-13.81,10.08-19.31-.18-.16-1.73,1.05-1.97,1.25-3.03,2.56-6.56,8.47-7.96,12.19Z"/>
              <path class="cls-1" d="M98.52,27.59l-2.42,1.73c-3.91,4.73-7.08,10.7-7.35,16.95.6.12.33-.18.47-.46,3-6.1,4.7-12.99,9.3-18.23Z"/>
              <path class="cls-1" d="M100.39,30.91c-4.57,3.25-6.82,9.08-7.89,14.43l.2,1.97,4.19-10.25,3.5-6.15Z"/>
              <path class="cls-1" d="M96.23,47.73l5.2-12.46c-3.49,2.87-5.33,7.71-5.61,12.15-.03.41.04.33.41.31Z"/>
              <path class="cls-1" d="M154.17,64.58c-1.51,3.3-2.42,6.85-4.02,10.11-1.28,2.6-2.93,4.97-4.65,7.29l2.92-2.17c2.99-3.51,5.46-8.27,5.99-12.91.11-.93-.16-1.9.23-2.77-.59-.11-.34.16-.47.45Z"/>
              <path class="cls-1" d="M151.1,63.3l-4.46,9.97-4.06,6.22c5.16-3.62,8.66-9.79,8.52-16.19Z"/>
              <path class="cls-1" d="M144.07,70.5l-4.19,6.71c4.34-3.35,8.01-8.65,7.89-14.33l-3.7,7.61Z"/>
              <path id="eyebrow-right" class="cls-1" d="M139.46,30.08c.16-.16-1.15-1.69-1.34-1.88-3.96-3.84-9.96-2.6-10.71,3.12l2.3-2.58c3.3-2.34,6.86-.79,9.75,1.34Z"/>
              <path id="eyebrow-left" class="cls-1" d="M117.02,30.8c-4.44-5.29-11.6-2.02-11.85,4.46.5-.35.57-1.2.87-1.73,2.59-4.58,7.25-4.6,11.39-2.01.09-.39-.22-.49-.41-.73Z"/>
            </g>
          </g>
          <path class="cls-3" d="M77.3,67.33c-3.26,2.16-5.73-2.12-6.74-4.66-1.65-4.18-2.2-9.84-.88-14.16.4-1.31,1.5-3.67,3.01-3.86,2.78-.36,5.21,3.99,5.96,6.2,1.27,3.75,2.39,13.99-1.36,16.48ZM73.58,42.43c4.96.76,7.19,5.73,8.17,10.11,1.18,5.29,1.7,14.54-3.93,17.38-.22.11-.39-.11-.3.43,11.44,3.32,10.86-12.56,9.04-19.51-1.52-5.8-6.33-14.81-12.99-8.41ZM101.35,9.55c11.22-5.38,25.52-6.57,36.35.38,5.02,3.22,7.54,8.2,11.95,12.05-2.88-6.94-8.6-12.58-15.45-15.61-23.99-10.62-54.74,5.5-58.55,31.59l3.93-.43c2.21-12.1,10.76-22.7,21.77-27.98ZM161.08,51.25c2.19-5.07,2.07-10.32.21-15.47-1.41-3.91-4.33-8.49-8.73-9.23,4.26,5.28,6.7,11.78,7.84,18.43l.68,6.27Z"/>
          <path id="tongue" class="cls-5" d="M122.21,71.4c.55.77.79,1.75.83,2.7-.78-.82-1.13-1.85-2.07-2.6-1.62-1.29-3.88-1.6-5.81-.91.59,4.28,6.6,6.76,10.42,5.74,1.88-.5,1.57-.96.66-2.42-.83-1.33-2.36-2.7-4.04-2.51Z"/>
        </g>
        <path class="cls-1" d="M263.24,212.25c-.19-.15-.73-.35-1.02-.33l-5.21.41,4.8-10.17c.24-.52.03-1.69-.56-1.78-1.77-.25-3.43-.05-5.14.22-1.83.3-3.09,1.38-3.88,3.05l-4.39,9.27c-.47.98-3.75.5-4.95,1.21-1.57.93-2.62,3.99-1.63,4.6.21.13.7.16,1.03.15l2.98-.06-6.84,15.72c-.98,2.26-6.63,9.47-8.5,7.08-.71-.9-.09-2.75.38-3.78,1.6-3.52,3.3-6.74,5.09-10.15,1.13-2.15,2.6-5.47.51-7.49-2.33-2.25-5.82-.34-8.38-1.58.6-2.08,1.32-5.74-.62-7.03-.73-.49-1.94-.63-2.74-.42-4.35,1.13-6.14,7.24-3.77,11.22-.45,2.61-1.4,4.19-3.57,5.23.2-4.77-1.02-9.8-6.23-10.27-8.31-.76-16.26,8.1-19.66,17.23-.46-3.84-2.02-7.61-4.78-10.96l-4.13-5.01c-3.66-4.44-8.01-8.65-7.42-14.66.6-6.12,5.79-10.95,11.86-11.23,2.12-.1,4.12.73,4.88,2.62.83,2.06.17,4.23-1.06,5.96-3.08,4.35-7.7,2.9-6.82,7.23.66,3.25,4.81,4.1,8.12,2.62,7.11-3.19,11.15-13.12,7.07-19.74-1.73-2.81-4.81-4.37-8.16-4.76-12.57-1.46-25.62,7.96-26.56,20.9-.21,2.86.52,5.71,1.67,8.3,4.36,9.83,16.22,15.88,15.18,26.14-.8,7.95-8.71,13.84-16.39,11.49-3.21-.98-5.23-4.02-4.83-7.39.56-4.71,4.28-8.02,8.86-8.51,1.1-.9,1.14-2.5.73-3.83-1.06-3.41-5.62-3.55-8.76-2.38-3.93,1.46-6.6,4.41-8.63,7.97-.57.99-1.74,3.02-2.5,3.93-2.59,3.09-4.96,6.66-8.42,8.85-3.23,2.05-8.57,1.69-7.87-3.29,8.47-.09,19.05-7.43,18.07-16.6-.27-2.49-1.89-4.38-4.23-4.94-2.8-.66-5.57.1-8.1,1.42-3.57,1.86-6.24,4.68-8.63,7.85-3.07,4.07-4.79,8.44-5.85,13.44-.48,1.77-7.93,8.58-9.23,5.29-.52-1.32-.17-3.05.42-4.39l7.75-17.68,5.6-.81c1.09-.16,1.94-.96,2.37-1.93l.71-1.58c.1-.23,0-.95-.21-1.1-.2-.14-.71-.31-.97-.29l-4.96.4,4.43-9.72c.13-.28.02-1.04-.14-1.28-.72-1.09-4.5-.36-5.82-.11-1.4.26-2.57,1.09-3.2,2.42l-4.61,9.7c-1.49.29-3.11.32-4.61.76-1.72.5-3,3.95-2.11,4.59.15.11.64.23.83.22l3.44-.2-6.43,14.84c-.79,1.83-6.71,10.28-9.07,8.39-1.48-1.19.7-6.68,1.42-8.29l6.81-15.33c.14-.33.08-1.17-.12-1.43-.94-1.26-7.81-.81-9.22,2.49-4.28-4.2-10.46-1.41-14.26,2.07-4.88,4.47-8.17,10.25-10.15,16.58-.5,1.58-1.12,2.82-2.18,4.06-1.26,1.47-2.56,2.91-4.51,3.45-.49.13-1.3-.03-1.6-.31-1.13-1.07,1.18-5.65,1.93-7.12l4.13-8.05c.7-1.37,1.14-3.1.81-4.57-.58-2.57-3-3.93-5.44-3.96l-4.61-.05c.21-2.18,1.16-4.9-.82-6.33-.75-.54-1.98-.57-2.81-.37-2.22.55-3.42,2.22-4.31,4.08-1.15,2.4-.39,4.55.34,6.84-.42,2.86-2.2,5.5-3.58,7.89-4.56,7.9-10.99,14.93-19.81,17.84-2.68.88-5.38,1.26-8.14.74-3.33-.63-5.91-3.15-7.03-6.4-1.62-4.68-1.45-9.58-.35-14.55,2.4-10.83,7.93-20.82,15.59-28.81,2.47-2.57,5.19-4.53,8.25-6.18,2.11-1.14,4.37-1.74,6.7-1.74,2.51,0,4.36,1.84,4.45,4.47.08,2.35-.73,4.73-1.79,6.89-2.06,4.22-5.07,7.7-8.71,10.66-.49.4-.79,1.36-.71,1.85.07.45.55,1.14,1.03,1.38,8.97,4.54,23.62-15.13,17.63-26.49-1.38-2.61-4-4.25-6.88-4.9-7.91-1.78-16.7,2.06-23.14,6.52-6.3,4.36-11.46,9.74-15.96,15.94-3.4,4.68-6,9.59-8.1,14.98-1.82,4.67-2.91,9.39-3.25,14.41-.22,3.3.18,6.54,1.06,9.71,2.08,7.51,7.56,12.28,15.39,13,5.34.49,10.5-.71,15.32-3.12,13.11-6.57,20.85-19.16,26.73-32.2,1.25-.26,2.61-.21,3.69.65.52.42.24,1.46-.08,2.04-2.05,3.79-4.04,7.43-5.75,11.37-.93,2.14-1.56,4.28-1.74,6.55-.26,3.09,1.8,5.48,4.94,5.49,4.74.02,9.07-3.62,12.25-7.02.46,1.12.89,2.35,1.65,3.25,1.77,2.09,4.56,2.45,7.07,1.5,3.38-1.28,5.93-3.68,8.39-6.66.35,2.31,1.09,4.26,3.18,5.09,5.07,1.48,10.03-2.91,13.35-6.61.28,3.27,2.52,5.49,5.64,5.38,5.54-.19,9.66-4.18,13.51-8.06,2.72,3.39,5.48,4.56,8.66,4.82,6.79.57,12.44-5.09,16.96-13.81.19,9.99,8.92,14.39,17.88,13.45,7.09-.74,13.54-4.29,17.96-9.85,1.36-1.71,2.44-3.54,3.25-5.43.13,1.01.37,1.97.72,2.84.99,2.44,3.06,4.04,5.69,4.38,9.5,1.22,17.62-11.44,19.89-19.49,4.77-1.5,6.17-4.13,8.84-8.24l3.19.88c-.13.48-.37,1.23-.67,1.76-2.17,3.94-4.22,7.82-5.73,12.06-.68,1.92-1.02,3.96-.79,5.89.33,2.85,2.55,4.65,5.38,4.41,4.61-.39,8.17-3.55,11.13-6.91.45,1.38.7,2.79,1.63,3.71,1.63,1.61,4.08,1.89,6.31,1.45,6.49-1.3,13.22-8.29,15.69-14.1.44-1.03-.19-2.18-1.07-2.46-.72-.23-1.69.19-2.17,1.04-1.96,3.5-4.63,6.47-8.44,7.9-.77.29-1.91.21-2.37-.26-1.66-1.74.8-6.65,1.87-9l6.13-13.49,5.58-.7c.64-.08,1.59-.78,1.92-1.35l1.27-2.24c.13-.24.07-.97-.13-1.12ZM143.67,232.33c.87.12,1.07,1.29.93,2.02-.82,4.39-5.66,9.56-10.58,9.9.91-3.23,6.03-12.42,9.65-11.92ZM94.68,241.31c-.76,2.93-1.95,5.56-3.17,8.32-1.02,2.29-2.32,4.34-3.88,6.28-1.24,1.54-3.96,4.56-5.94,3.3-1.52-.96-.88-4.17-.42-5.77,1.38-4.76,3.78-9.08,6.99-12.85,1.31-1.54,4.03-3.41,5.77-1.78.47.44.87,1.69.65,2.51ZM204.39,242.79c-1.33,1.41-3.49,3.22-5.27,2.34-1.95-.97-1.52-4.94-1.04-6.74,1.33-4.97,3.6-9.69,7.27-13.49-.66,3.81.71,7.14,4.33,8.37-1.2,3.6-3,6.67-5.29,9.52ZM211.27,227.7c-1.26-.98-1.23-2.76-.37-4.02.95,1.16.86,2.65.37,4.02Z"/>
      </g>
    </g>
  </g>
</svg>