<?xml version="1.0" encoding="UTF-8"?>
<svg id="Layer_2" data-name="Layer 2" xmlns="http://www.w3.org/2000/svg" viewBox="0 0 1063.39 1262.43">
  <defs>
    <style>
      .cls-1 {
        fill: #212121;
      }

      .cls-2 {
        fill: #428175;
      }

      .cls-3 {
        fill: #d17d34;
      }

      .cls-4 {
        fill: #fcfcfc;
      }

      .cls-5 {
        fill: #f7e9d0;
      }
    </style>
  </defs>
  <g id="_1b" data-name="1b">
    <g id="bg_copy" data-name="bg copy">
      <g>
        <g id="black">
          <path id="black-2" data-name="black" class="cls-1" d="M922.01,1081.69l-99.92,40.62-229.36,91.5-102.82,42c-31.15,12.73-56.69,5.83-84.88-10.05l-26.97-15.19-57.35-32.63-120.01-65.77-13.66-7.61-103.49-56.51-31.22-16.69-27.87-15.1c-6.06-3.28-12.59-6.51-16.61-12.12-4.45-6.21-6.77-13.65-7-21.17l-.83-26.34.05-464.33c0-11.12,7.76-21.63,17.93-24.04l128.49-30.41c-33.83-41.49-41.32-105.6-19.63-153.84,7.72-16.29,17.58-30.3,31.99-41.37,4.38-66.84,37.04-127.01,84.15-173.52C297.16,35.63,368.48,4.17,444.59.53c27.85-1.33,54.76-.35,82.06,5.53,33.86,7.3,65.53,20.06,93.59,40.48,37.76,27.47,64.81,66.38,78.95,110.79,29.86,8.66,51.51,31.23,64.49,58.76,18.48,39.22,21.17,83.63,5.96,125.3,13.52-7.04,26.25-13.27,40.51-18,16.08-24.89,43.16-38.24,72.72-37.46,25.61.68,48.09,14.42,59.76,37.01,13.48,4.4,24.15,12.43,33.47,22.68l15.28,20.81c6.51,8.86,16.95,13.87,27.06,17.79l25.92,10.06c8.49,3.3,14.84,10.28,17.31,17.63,6.33,18.9-5.54,37.67-26.7,42.19-17.55,3.75-34.89-.41-50.77-8.7-.78-.86-2.16-1.22-2.62-.02-7.42,19.21-26.23,38.34-46.62,42.72-.59,2.66-.44,4.92,0,7.99l49.65,15.93c13.26,4.25,21.14,15.73,21.15,30.08l.06,444.52-1.42,36.86c-.64,16.68-11.73,29.68-27.19,35.92l-55.21,22.28ZM594.83,96.33c-14.51-17.16-38.96-29.83-61.52-36-107.05-29.3-222.27,26.14-280.38,118.55-14.81,23.56-25.38,48.96-30.95,75.93-.64,3.12.02,6.19,3.26,7.23,13.59-45.45,39.12-86.31,73-119.69,74.57-73.45,184.56-97.36,280.05-52.01l15.85,6.94.68-.96ZM595.66,97.1l-1.22.55c.92,1.14,1.53-.09,1.22-.55ZM527.59,490.32l96.89-21.88,214.9-47.94c4.76-1.06,7.85-1.89,7.95-7.43l-179.17,38.06-81.24,17.89-62.59,14.63c.48,2.49,1.04,4.58,3.26,6.67ZM529.25,507.8l111.21-25.38,192.93-43.81c2.41-2.83,3.96-5.41,5.47-8.47l-89.46,19.29-106.38,23.68-113.53,26.36c-.39,2.97-.64,5.48-.24,8.33ZM518.98,529.98l247.29-57.5,59.41-14.44,2.19-8.36-44.72,9.78-146.91,33.78-112.09,26.62c-4.28,5.88-12.22,11.83-7.76,10.75l2.6-.63ZM644.47,520.05l74.65-17.92,108.1-25.64-1.7-7.48-180.47,42.04-130.26,30.79-5.03,10.15,134.7-31.93ZM154.88,546.75l-85.11-33.57c-1.43-.56-2.1-1.73-1.55-2.4.37-.45,1.28-1.3,2.29-1.52l115.65-25.54-17.19-10.27-117.84,27.6c-9.6,2.25-18.74,3.51-27.84,7.5l134.18,55.07c7.62-31.54,30.96-55.22,54.79-74.29-3.11-1.39-5.14.53-7.22,1.79-20.47,12.32-39.35,33.39-50.17,55.63ZM694.94,524.87c51.21-17.19,113.94-18.41,156.75,17.83l63.19-14.98,1.11-43.95-14.98,7.3c-10.01,2.9-20.49-.64-26.07-10.13-14.07,12.19-27.33,17.44-40.83,4.99l-81.36,18.85-82.4,19.62-121.07,28.88-61.62,14.12c-1.96,4.76-5.18,7.51-8.77,10.57l-2.06,56.37,101.9-25.51c30.69-39.37,68.51-68.11,116.22-83.95ZM279.48,531.01c-16.93,3.95-29.94,11.18-45.65,12.82-1.03.51-1.9-.04-2.18-.46-.4-.61-.57-1.54.12-2.36l22.42-26.6c-12.94,5.24-41.83,33.8-35.84,38.3,6.61,4.95,50.32-8.18,61.12-21.7ZM356.24,623.44l-79.26-31.59-19.88,8.83,105.27,41.53,56.41,19.63c17.23,6,34.65,5.8,52.52,1.35l119.17-29.69,139.79-35.26,252.03-64.74c-1.39-2.83-3.91-3.19-6.16-3.89l-46.92-14.67-.04,10.57,7.72,3.26c1.04.44,1.47,1.77,1.31,2.61-.12.65-.87,1.64-1.97,2l-11.32,3.63-73.28,17.83-103.28,25.55-190.26,46.55-88.75,22.39c-15.92,4.02-31.36,4.32-46.68-1.34l-66.41-24.56ZM73.19,569.29l.23-21.23-51.02-20.66.36,19.15,50.43,22.75ZM613.16,599.66c16.08-20.06,35.47-34.5,56.43-49.2-28.52,10.15-51.45,29.65-68.73,52.25,5.19-.3,8.12-1.66,12.3-3.05ZM983.43,572.48l-.02-21.53-78.65,20.93.03,21.52,78.64-20.91ZM356.78,657.91l-125.96-50.43c-29.08,3.25-60.37,5.92-71.92-23.91l-69.54-28.83.21,21.97,55.32,24.15,95.51,37.51,116.4,46.66-.03-27.12ZM644.34,592.23c10.59-12.47,24.46-20.63,36.56-31.52-20.81,5.39-36.47,19.14-49.96,33.98,5.47.66,8.8-1.72,13.4-2.46ZM73.11,606.74l.24-21.49-50.88-22.77.26,20.77,50.39,23.49ZM425.68,634.74l.23-63.75-10.27-8.25-.03,68.8c3.7,1.58,6.72,2.95,10.07,3.2ZM394.51,623.88c4.34,1.63,6.74,3.14,10.28,3.43l.38-61.68-10.77,6.12.11,52.14ZM384.22,619.87l.16-44.54-10.84,2.22.15,39.05,10.53,3.27ZM684.6,575.92c-6.93,2.31-13.28,6.42-18.44,10.93,7.03.66,16.79-6.23,18.44-10.93ZM753.22,633.37l134.7-35.14-.06-22-203.05,51.6-95.86,24,.29,23.43,163.99-41.89ZM446.53,639.46l1.88-56.76-11.97-4.98.04,59.93c3.58,1.38,6.52,1.99,10.05,1.82ZM466.03,636.26l2.67-54.45-10.44,1.83-1.7,54.66c3.33.03,6.15-.61,9.47-2.05ZM983.32,612.03v-21.21s-78.75,20.42-78.75,20.42l.15,22.21,78.61-21.42ZM137.22,636.08c2.15-6.81,5.4-11.89,9.33-16.95l-57-25.43-.07,20.61,47.73,21.77ZM73.41,726.74l.1-101.06-50.82-24.2.75,98.72,49.98,26.54ZM888.01,637.95l-.5-22.37-72.15,19.68c5.87,5.55,10.27,11.5,13.36,18.97l59.29-16.29ZM280.89,736.22c11.85-28.78,2.27-63.02-28.14-75.29l-74.69-30.15c-8.45-3.41-16.47-1.7-22.06,5.41-4.87,6.19-6.46,13.67-6.9,21.7-1.02,18.86,5.95,36.26,19.84,48.89,4.92,4.47,9.55,8.3,15.52,11.64,21.95,12.29,44.54,23.32,68.32,31.13,12.3,4.04,23.21-1.47,28.09-13.32ZM983.33,724.03l-.04-94.31-78.7,21.43.15,99.37,78.59-26.49ZM343.2,1017.41l12.96,21.87-.08-20-4.55-11.38,4.65-8.21.03-15.67-11.71,11.07-32.74-64.3c-1.28-2.51.97-4.97,2.4-6.54l21.96-24.19,20.24,38.13-.28-25.26-10.5-22.82c2.86-5.19,7.03-9.35,11.01-13.65l.18-44.7-22.5-40.88,22.19-25.62.35-16.28c.02-1.1-1.01-1.62-1.65-1.69s-1.44.03-2.14.84l-26.2,30.15-26.76-49.33c-1.12,5.64-2.93,11.01-5.45,16.91l23.38,42.5-16.33,18.19c-4.58-5.32-7.09-11.29-10.22-17.24l-13.35-25.37-12.59,3.74,26.47,48.69-25.92,28.69-28.68-53.87,20-23.04-13.28-3.07-10.47,11.63c-.72.8-1.57,1.27-2.3,1.36-.65.08-1.86-.3-2.37-1.23l-12.95-24.01-16.6-7.52,22.06,43.39-25.32,27.52c-.79.86-2,1.29-2.71,1.09-.42-.12-1.17-.67-1.59-1.47l-29.45-56.62,20.55-22.97-12.05-6.8-15.95,16.25-30.63-57.11,10.06-11.56c-1.16-8.43-1.6-16.3-.89-24.43l-15.05-5.96,7.43,17.29c-.32,4.68-5.65,8.65-9.02,11.83l-19.9-35.9c-1.83-3.3-3.36-6.6-7.67-6.5l.38,17.87,18.77,35.35-18.87,23.27.28,16.06,26.25-27.89,27.98,53.56c1.2,2.29,1.98,4.53.03,6.62l-25.3,27.07-28.83-55.53c.13,7.93-2.28,17.7.28,26.21l17.42,35.03c.79,1.59,1.84,3.33.32,5.15l-18.29,22,.17,19.01,26.53-29.25,31.48,60.07-27.63,30.96-30.45-61.4c.69,9.21-3.29,19.39.57,27.39l21.18,44.01-14.06,17.33,11.05,5.84,9.73-10.26,10.95,19.56c3.88,2.97,9,4.68,13.96,6.78l-15.88-36.04,27.22-30.56,27.87,54.24-19.16,22.47c3.36,2.43,7.15,4.41,11.21,5.56l14.66-15.63,16.32,31.02c4.89,2.4,8.93,5.24,15.19,6.78l-21.73-47.16,25.07-27.7c.74-.82,1.6-1.31,2.35-1.31s1.63.47,2.17,1.53l28.06,55.21-23.06,26.6,12.09,5.78,18.33-19.55,20.87,38.59c4.34,3.84,11.18,6.71,16.58,7.68l-28.25-56.68,25.91-28.85c.66-.73,1.63-1.01,2.18-.91.51.1,1.5.68,1.97,1.58l32.81,64.01-23.96,26.63,12.01,5.35,19.19-19.36ZM697.26,759.11l78.48-22.21c29.9-9.52,48.01-39.9,39.53-70.55-4.55-16.46-21.28-25.82-37.74-21.6l-91.22,23.42c-27.82,7.14-45.89,32.45-42.83,60.99,1.73,16.19,13.52,28.94,29.77,31.21,7.97,1.11,16.16.96,24.01-1.26ZM534.97,688.55l36.99-9.4-.02-23.11-108.43,26.45v23.92s71.46-17.86,71.46-17.86ZM588.89,903.87l-.48,18.37,19.09,16.98c1.04.92,1.36,2.82.59,3.93l-19.47,27.98.06,22.48,31.34-44.45,40.26,35.2c1.45,1.27,1.81,3.21.74,4.75l-26.76,43.22,18.94-6.14,19.58-30.5,18.57,16.24c5.14-.62,9.76-3.05,15.14-4.93l-23.14-21.62c-2.11-1.97-1.84-3.97-.31-6.33l32.83-50.43,35.31,30.85c1.65,1.44,1.84,3.69.63,5.43l-19.09,33.04c6.16-2.74,13.82-3.2,18.64-7.46l12.42-18.41,12.65,10.52,15.87-5.56-20.73-19.62,35.31-57.11,37.41,35.58-16.07,28.35c6.06-1.91,12.14-2.82,16.76-6.29l8.89-12.57c3.32.94,5.61,3.99,8.21,6.44l14.15-5.44-13.83-14.46,24.99-40.41-.17-43.51-25.89-26.56c-1.62-1.66-2.51-3.76-1.08-6.03l27.66-43.74.18-30.89-27.14-28.95c-2.05-2.19-1.26-4.36.25-6.58l26.32-38.65c1.6-2.45.31-6.88.32-9.94l-11.4,2.94-27.3,39.58-9.25-10.29c-2.53-2.82-2.48-6.32-.37-9.29l9.5-13.41-16.36,4.7c.96,10.29.32,19.92-1.89,29.71l9.46,10.94-35.07,53.84-14.79-14.66-15.32,4.97,18.85,19.1c2.21,2.24,2.17,4.26.49,6.82l-35.25,53.72-37.39-35.66,22.87-35.64-18.91,4.71-14.92,21.11-14.15-13.6-18.86,1.89,24.66,24.87-39.4,59.05-41.65-36.73c-1.4-1.23-.97-3.48-.01-4.85l33.24-47.61c-19.23-11.09-26.96-26.97-28.23-48.68l-37.58,10.66.04,18.52,14.77-14.67c2.15-2.14,6.82-3.52,9.3-.88l26.16,27.86c1.72,1.83,1.15,4.4-.24,6.34l-30.3,42.41-19.8-18.77-.11,20.17,11.2,11.04-10.75,17.24c-1.92,7.24-.32,14.91-.52,22.51l22.58-30.95,40.43,34.4c2.44,2.08,2.99,4.17,1.16,6.88l-35.39,52.21-28.46-25.24ZM446.34,707.52l-.12-24.94c-10.31-.3-19.59-2.13-29.25-4.77l-43.3-13.91.11,27.06c18.36,6.97,36.79,12.33,56.05,15.69l16.5.87ZM356.72,730.24l-.11-27.75-63.14-24.49c4.97,10.96,7.24,20.46,7.77,31.42l55.48,20.82ZM628.65,705.62c2.26-9.79,6.85-16.7,11.58-25.22l-51.37,12.7-.09,23.16,39.88-10.64ZM571.95,720.17l-.04-23.1-108.31,27.84-.05,24.34,108.4-29.08ZM446.4,750.62l-.12-25.32c-11.26-.25-21.89-1.56-32.87-3.96l-39.73-12.17v24.79s28.96,9.12,28.96,9.12c14.32,4.51,28.71,7.01,43.76,7.55ZM73.43,850.36l.11-103.89-50.06-26.98v103.58s49.96,27.29,49.96,27.29ZM483.96,868.01l87.82-26.81.16-102.37-108.66,29.32.02,104.39,20.66-4.52ZM983.34,841.09l-.14-97.76-78.58,25.78-.11,99.53,78.83-27.55ZM446.21,872.89l.15-103.29c-11.54-.74-21.89-2.72-32.62-5.61l-40.08-10.77-.08,96.97,50.4,18.51c7.13,2.62,14.3,4.19,22.24,4.18ZM73.29,915.63l.26-45.52-49.96-27.58.07,44.45,49.63,28.65ZM571.49,969.83l.4-109.71-108.72,31.95-.02,116.6,108.35-38.84ZM983.02,909.11l.11-48.56-78.53,27.28.38,48.84,78.04-27.56ZM446.19,892.09l-21.29-4.35-51.29-17.91-.03,110.83,72.09,27.81.51-116.38ZM73.44,1035.59l.07-100.08-49.81-27.97v91.29c-.29,6.58,2.7,11.85,8.16,15.13l41.58,21.63ZM971.39,1035.16c7.4-2.95,11.18-8.88,11.25-16.35l.54-90.84-78.6,27.56-.05,106.26,66.85-26.62ZM355.99,1190.27l.39-118.55-113.48-54-152.06-73.28-.23,100.98,22.39,11.48,141.3,77.44,101.7,55.92ZM719.39,1135.99l167.77-67.1-.1-106.95-206.27,72.84-92.45,32.88-.04,120.06,131.08-51.73ZM571.35,1044.72v-55.54s-108.36,38.4-108.36,38.4l-.24,56.77,108.6-39.62ZM445.97,1085.65v-57.02s-72.41-27.94-72.41-27.94l.08,57.08,49.58,21.6c7.31,3.18,14.5,5.24,22.75,6.27ZM597.86,1045l13.71-4.63-22.81-19.78c-.29,14.16-3.28,19.26,9.1,24.41ZM479.6,1232.51l91.41-37.7.33-129.58-104.3,36.68c-3.27,1.18-4.73,3.49-4.38,7.07l-.46,127.02c6.66.13,11.81-1.19,17.4-3.5ZM446.12,1109.58c.05-3.73-1.39-5.17-4-6.05-13.97-3.28-27.08-7.93-40.27-13.66l-28.31-12.13-.24,122.51,49.17,27.9c6.76,3.84,13.45,6.67,21.99,7.25l1.66-125.82Z"/>
          <g>
            <path class="cls-1" d="M266.42,956.2l-29.41-55.56c-.91-1.72.56-3.85,1.58-4.98l25.6-28.48,30.28,57.96-28.04,31.07Z"/>
            <polygon class="cls-1" points="157.13 858.26 125.65 798.56 153.03 769.08 184.05 828 157.13 858.26"/>
            <path class="cls-1" d="M254.46,858.13l-25.76,27.89-26.97-51.04c-.8-1.51-1.29-3.83-.03-5.18l26.61-28.54,27.53,50.74c1.1,2.03.26,4.36-1.38,6.13Z"/>
            <path class="cls-1" d="M191.85,926.3l-25.27-49.28c-.62-1.69-3.1-5.05-1.57-6.8l21.51-24.63c1.47-1.69,2.67-3.49,5.38-3.71l27.91,54-27.95,30.42Z"/>
            <path class="cls-1" d="M329.01,886.74l-25.37,28.58-30.09-57.7,22.95-26.04c.72-.82,1.98-1.09,2.69-.75.57.27,1.2,1.05,1.86,1.99l27.96,53.92Z"/>
            <path class="cls-1" d="M353,860.57l-14.78,16.31-29.95-56.88,17.43-19.21,26.93,49.29c1.35,2.99,3.01,7.58.37,10.49Z"/>
            <path class="cls-1" d="M748.4,852.14l-34.58,54.55-37.12-32.57c-1.9-1.66-3.02-3.34-1.56-5.89l37.63-56.4,35.52,33.56c1.98,1.87,2.11,4.12.12,6.75Z"/>
            <path class="cls-1" d="M704.37,921.1l-34.07,52.54-39.33-33.79c-1.72-1.48-2.05-3.64-.6-5.41l35.26-51.4,37.66,34.37c.65.6,2,2.28,1.08,3.69Z"/>
            <path class="cls-1" d="M763.03,946.45c-1.64,2.12-3.29,1.27-4.74-.04l-33.85-30.71,34.62-55.46c.79-1.37,3-1.99,4.25-.81l33.39,31.62-33.67,55.4Z"/>
            <path class="cls-1" d="M884.37,871.41l-30.46,49.47c-.48.78-1.23,1.23-1.66,1.32-.74.16-1.84-.22-2.7-1.07l-34.07-33.34,35.06-56.62,32.9,33.04c2.15,2.16,2.71,4.67.93,7.2Z"/>
            <polygon class="cls-1" points="839.83 821.52 805.68 878.44 769.88 844.61 806.13 787.7 839.83 821.52"/>
            <path class="cls-1" d="M880.82,756.41l-30.51,49.96c-.92,1.5-2.92,1.22-4.01.12l-29.42-29.61c-1.17-1.18-1.63-3.06-.63-4.58l33.61-50.81,29.35,29.99c1.14,1.16,1.85,2.58,1.62,4.94Z"/>
            <path class="cls-1" d="M706,743.03l-23.6,4.43c-10.81,2.03-21.1-4.74-24.47-15.79-6.73-22.12,7.41-44.25,29.75-50.09l71.18-18.61,24.77-4.68c11.26-.32,19.55,7.42,20.24,18.75,1.26,20.64-9.62,40.37-30.53,46.44l-67.35,19.55ZM734.02,703.21c2.9.53,5.73,2.96,6.24,6.21l1.8,11.32c9.43-4.93,22.76-4.57,30.63-12.26,9.03-8.83-1.13-34.73-9.8-32.45l-65.69,17.22c-10.44,2.74-20.6,36.16-14.3,41.36,1.03.85,3.36.63,4.86.23l33.3-8.72c.6-11.88,3.79-24.58,12.97-22.91Z"/>
            <path class="cls-1" d="M270.01,727.35c-3.65,8.7-11.83,11.7-19.73,8.07l-58.15-26.68c-31.16-14.3-34.46-59.6-22.21-65.56,2.8-1.36,5.8,0,8.55,1.17l73.36,31.4c5.95,2.55,11.07,6.15,14.56,11.62,7.51,11.78,9.1,26.92,3.62,39.98Z"/>
          </g>
        </g>
        <g id="orange">
          <polygon class="cls-3" points="719.39 1135.99 588.31 1187.72 588.34 1067.66 680.79 1034.78 887.06 961.94 887.16 1068.88 719.39 1135.99"/>
          <polygon class="cls-3" points="355.99 1190.27 254.29 1134.35 113 1056.91 90.61 1045.43 90.83 944.45 242.9 1017.73 356.38 1071.72 355.99 1190.27"/>
          <path class="cls-3" d="M343.2,1017.41l-19.19,19.36-12.01-5.35,23.96-26.63-32.81-64.01c-.46-.9-1.45-1.48-1.97-1.58-.55-.11-1.52.18-2.18.91l-25.91,28.85,28.25,56.68c-5.4-.97-12.24-3.84-16.58-7.68l-20.87-38.59-18.33,19.55-12.09-5.78,23.06-26.6-28.06-55.21c-.54-1.06-1.41-1.54-2.17-1.53s-1.61.49-2.35,1.31l-25.07,27.7,21.73,47.16c-6.26-1.54-10.31-4.38-15.19-6.78l-16.32-31.02-14.66,15.63c-4.06-1.15-7.85-3.13-11.21-5.56l19.16-22.47-27.87-54.24-27.22,30.56,15.88,36.04c-4.96-2.09-10.08-3.81-13.96-6.78l-10.95-19.56-9.73,10.26-11.05-5.84,14.06-17.33-21.18-44.01c-3.85-8,.13-18.18-.57-27.39l30.45,61.4,27.63-30.96-31.48-60.07-26.53,29.25-.17-19.01,18.29-22c1.52-1.82.47-3.56-.32-5.15l-17.42-35.03c-2.56-8.51-.15-18.28-.28-26.21l28.83,55.53,25.3-27.07c1.95-2.09,1.16-4.33-.03-6.62l-27.98-53.56-26.25,27.89-.28-16.06,18.87-23.27-18.77-35.35-.38-17.87c4.31-.1,5.84,3.2,7.67,6.5l19.9,35.9c3.37-3.18,8.7-7.16,9.02-11.83l-7.43-17.29,15.05,5.96c-.71,8.13-.27,16.01.89,24.43l-10.06,11.56,30.63,57.11,15.95-16.25,12.05,6.8-20.55,22.97,29.45,56.62c.42.8,1.17,1.35,1.59,1.47.71.21,1.91-.22,2.71-1.09l25.32-27.52-22.06-43.39,16.6,7.52,12.95,24.01c.5.93,1.72,1.31,2.37,1.23.73-.09,1.58-.56,2.3-1.36l10.47-11.63,13.28,3.07-20,23.04,28.68,53.87,25.92-28.69-26.47-48.69,12.59-3.74,13.35,25.37c3.13,5.95,5.64,11.92,10.22,17.24l16.33-18.19-23.38-42.5c2.52-5.9,4.33-11.27,5.45-16.91l26.76,49.33,26.2-30.15c.7-.81,1.48-.91,2.14-.84s1.67.59,1.65,1.69l-.35,16.28-22.19,25.62,22.5,40.88-.18,44.7c-3.99,4.31-8.16,8.47-11.01,13.65l10.5,22.82.28,25.26-20.24-38.13-21.96,24.19c-1.43,1.58-3.67,4.03-2.4,6.54l32.74,64.3,11.71-11.07-.03,15.67-4.65,8.21,4.55,11.38.08,20-12.96-21.87ZM157.13,858.26l26.93-30.26-31.02-58.92-27.38,29.48,31.48,59.71ZM353,860.57c2.64-2.91.98-7.5-.37-10.49l-26.93-49.29-17.43,19.21,29.95,56.88,14.78-16.31ZM254.46,858.13c1.64-1.78,2.49-4.1,1.38-6.13l-27.53-50.74-26.61,28.54c-1.27,1.36-.77,3.67.03,5.18l26.97,51.04,25.76-27.89ZM329.01,886.74l-27.96-53.92c-.65-.93-1.29-1.72-1.86-1.99-.71-.34-1.97-.07-2.69.75l-22.95,26.04,30.09,57.7,25.37-28.58ZM191.85,926.3l27.95-30.42-27.91-54c-2.72.22-3.91,2.02-5.38,3.71l-21.51,24.63c-1.53,1.75.96,5.11,1.57,6.8l25.27,49.28ZM266.42,956.2l28.04-31.07-30.28-57.96-25.6,28.48c-1.02,1.13-2.49,3.26-1.58,4.98l29.41,55.56Z"/>
          <path class="cls-3" d="M588.89,903.87l28.46,25.24,35.39-52.21c1.83-2.71,1.28-4.8-1.16-6.88l-40.43-34.4-22.58,30.95c.19-7.6-1.4-15.27.52-22.51l10.75-17.24-11.2-11.04.11-20.17,19.8,18.77,30.3-42.41c1.39-1.94,1.96-4.51.24-6.34l-26.16-27.86c-2.48-2.64-7.15-1.25-9.3.88l-14.77,14.67-.04-18.52,37.58-10.66c1.28,21.71,9,37.59,28.23,48.68l-33.24,47.61c-.96,1.37-1.39,3.62.01,4.85l41.65,36.73,39.4-59.05-24.66-24.87,18.86-1.89,14.15,13.6,14.92-21.11,18.91-4.71-22.87,35.64,37.39,35.66,35.25-53.72c1.68-2.56,1.72-4.58-.49-6.82l-18.85-19.1,15.32-4.97,14.79,14.66,35.07-53.84-9.46-10.94c2.21-9.79,2.85-19.43,1.89-29.71l16.36-4.7-9.5,13.41c-2.11,2.98-2.17,6.47.37,9.29l9.25,10.29,27.3-39.58,11.4-2.94c0,3.06,1.28,7.49-.32,9.94l-26.32,38.65c-1.51,2.21-2.3,4.39-.25,6.58l27.14,28.95-.18,30.89-27.66,43.74c-1.44,2.27-.54,4.37,1.08,6.03l25.89,26.56.17,43.51-24.99,40.41,13.83,14.46-14.15,5.44c-2.6-2.45-4.89-5.5-8.21-6.44l-8.89,12.57c-4.62,3.47-10.7,4.38-16.76,6.29l16.07-28.35-37.41-35.58-35.31,57.11,20.73,19.62-15.87,5.56-12.65-10.52-12.42,18.41c-4.82,4.26-12.49,4.72-18.64,7.46l19.09-33.04c1.21-1.74,1.02-3.98-.63-5.43l-35.31-30.85-32.83,50.43c-1.54,2.36-1.8,4.36.31,6.33l23.14,21.62c-5.38,1.87-10,4.31-15.14,4.93l-18.57-16.24-19.58,30.5-18.94,6.14,26.76-43.22c1.07-1.54.72-3.48-.74-4.75l-40.26-35.2-31.34,44.45-.06-22.48,19.47-27.98c.78-1.12.45-3.01-.59-3.93l-19.09-16.98.48-18.37ZM880.82,756.41c.23-2.36-.48-3.78-1.62-4.94l-29.35-29.99-33.61,50.81c-1,1.52-.54,3.4.63,4.58l29.42,29.61c1.1,1.11,3.1,1.38,4.01-.12l30.51-49.96ZM839.83,821.52l-33.7-33.82-36.25,56.91,35.79,33.83,34.15-56.92ZM748.4,852.14c2-2.64,1.86-4.88-.12-6.75l-35.52-33.56-37.63,56.4c-1.46,2.55-.34,4.23,1.56,5.89l37.12,32.57,34.58-54.55ZM884.37,871.41c1.78-2.52,1.22-5.04-.93-7.2l-32.9-33.04-35.06,56.62,34.07,33.34c.86.84,1.96,1.22,2.7,1.07.43-.09,1.18-.54,1.66-1.32l30.46-49.47ZM763.03,946.45l33.67-55.4-33.39-31.62c-1.25-1.18-3.46-.56-4.25.81l-34.62,55.46,33.85,30.71c1.45,1.32,3.1,2.17,4.74.04ZM704.37,921.1c.92-1.41-.43-3.09-1.08-3.69l-37.66-34.37-35.26,51.4c-1.45,1.77-1.12,3.94.6,5.41l39.33,33.79,34.07-52.54Z"/>
          <path class="cls-3" d="M479.6,1232.51c-5.59,2.31-10.74,3.63-17.4,3.5l.46-127.02c-.35-3.58,1.11-5.89,4.38-7.07l104.3-36.68-.33,129.58-91.41,37.7Z"/>
          <polygon class="cls-3" points="571.49 969.83 463.14 1008.67 463.17 892.07 571.89 860.12 571.49 969.83"/>
          <polygon class="cls-3" points="483.96 868.01 463.3 872.54 463.28 768.15 571.94 738.83 571.78 841.2 483.96 868.01"/>
          <path class="cls-3" d="M356.24,623.44l66.41,24.56c15.31,5.66,30.75,5.36,46.68,1.34l88.75-22.39,190.26-46.55,103.28-25.55,73.28-17.83,11.32-3.63c1.11-.36,1.85-1.35,1.97-2,.16-.84-.27-2.18-1.31-2.61l-7.72-3.26.04-10.57,46.92,14.67c2.25.7,4.77,1.06,6.16,3.89l-252.03,64.74-139.79,35.26-119.17,29.69c-17.87,4.45-35.29,4.65-52.52-1.35l-56.41-19.63-105.27-41.53,19.88-8.83,79.26,31.59Z"/>
          <path class="cls-3" d="M446.12,1109.58l-1.66,125.82c-8.53-.58-15.23-3.41-21.99-7.25l-49.17-27.9.24-122.51,28.31,12.13c13.19,5.74,26.3,10.38,40.27,13.66,2.61.88,4.05,2.32,4,6.05Z"/>
          <path class="cls-3" d="M971.39,1035.16l-66.85,26.62.05-106.26,78.6-27.56-.54,90.84c-.07,7.47-3.85,13.41-11.25,16.35Z"/>
          <polygon class="cls-3" points="446.19 892.09 445.68 1008.47 373.59 980.67 373.61 869.83 424.9 887.75 446.19 892.09"/>
          <polygon class="cls-3" points="983.34 841.09 904.5 868.65 904.61 769.12 983.19 743.34 983.34 841.09"/>
          <polygon class="cls-3" points="983.33 724.03 904.74 750.52 904.59 651.15 983.29 629.72 983.33 724.03"/>
          <path class="cls-3" d="M446.21,872.89c-7.94,0-15.1-1.56-22.24-4.18l-50.4-18.51.08-96.97,40.08,10.77c10.73,2.88,21.09,4.87,32.62,5.61l-.15,103.29Z"/>
          <polygon class="cls-3" points="753.22 633.37 589.23 675.26 588.95 651.83 684.81 627.83 887.86 576.23 887.92 598.23 753.22 633.37"/>
          <polygon class="cls-3" points="571.35 1044.72 462.75 1084.34 462.99 1027.57 571.35 989.17 571.35 1044.72"/>
          <path class="cls-3" d="M356.78,657.91l.03,27.12-116.4-46.66-95.51-37.51-55.32-24.15-.21-21.97,69.54,28.83c11.55,29.83,42.84,27.16,71.92,23.91l125.96,50.43Z"/>
          <path class="cls-3" d="M697.26,759.11c-7.84,2.22-16.04,2.37-24.01,1.26-16.25-2.27-28.03-15.01-29.77-31.21-3.06-28.54,15.01-53.85,42.83-60.99l91.22-23.42c16.45-4.22,33.18,5.14,37.74,21.6,8.48,30.65-9.63,61.03-39.53,70.55l-78.48,22.21ZM706,743.03l67.35-19.55c20.91-6.07,31.79-25.79,30.53-46.44-.69-11.34-8.99-19.07-20.24-18.75l-24.77,4.68-71.18,18.61c-22.34,5.84-36.48,27.97-29.75,50.09,3.36,11.05,13.65,17.82,24.47,15.79l23.6-4.43Z"/>
          <polygon class="cls-3" points="73.43 850.36 23.47 823.07 23.48 719.49 73.54 746.47 73.43 850.36"/>
          <polygon class="cls-3" points="73.41 726.74 23.44 700.2 22.69 601.48 73.51 625.68 73.41 726.74"/>
          <path class="cls-3" d="M73.44,1035.59l-41.58-21.63c-5.46-3.28-8.45-8.55-8.15-15.13v-91.29s49.81,27.97,49.81,27.97l-.07,100.08Z"/>
          <path class="cls-3" d="M280.89,736.22c-4.88,11.85-15.79,17.36-28.09,13.32-23.79-7.81-46.37-18.84-68.32-31.13-5.97-3.34-10.6-7.17-15.52-11.64-13.89-12.63-20.86-30.03-19.84-48.89.43-8.03,2.03-15.5,6.9-21.7,5.59-7.1,13.61-8.82,22.06-5.41l74.69,30.15c30.41,12.28,39.99,46.51,28.14,75.29ZM270.01,727.35c5.48-13.06,3.89-28.2-3.62-39.98-3.48-5.46-8.61-9.07-14.56-11.62l-73.36-31.4c-2.75-1.18-5.75-2.53-8.55-1.17-12.25,5.96-8.96,51.26,22.21,65.56l58.15,26.68c7.91,3.63,16.09.62,19.73-8.07Z"/>
          <path class="cls-3" d="M445.97,1085.65c-8.25-1.04-15.45-3.09-22.75-6.27l-49.58-21.6-.08-57.08,72.41,27.94v57.02Z"/>
          <path class="cls-3" d="M154.88,546.75c10.82-22.24,29.7-43.31,50.17-55.63,2.08-1.25,4.1-3.18,7.22-1.79-23.84,19.07-47.17,42.74-54.79,74.29l-134.18-55.07c9.1-3.99,18.24-5.25,27.84-7.5l117.84-27.6,17.19,10.27-115.65,25.54c-1.01.22-1.92,1.07-2.29,1.52-.54.67.13,1.84,1.55,2.4l85.11,33.57Z"/>
          <polygon class="cls-3" points="983.02 909.11 904.98 936.67 904.6 887.83 983.13 860.55 983.02 909.11"/>
          <polygon class="cls-3" points="534.97 688.55 463.51 706.41 463.5 682.49 571.94 656.04 571.96 679.15 534.97 688.55"/>
          <polygon class="cls-3" points="571.95 720.17 463.56 749.25 463.61 724.92 571.91 697.07 571.95 720.17"/>
          <polygon class="cls-3" points="73.29 915.63 23.66 886.98 23.59 842.53 73.55 870.11 73.29 915.63"/>
          <path class="cls-3" d="M446.34,707.52l-16.5-.87c-19.26-3.36-37.69-8.72-56.05-15.69l-.11-27.06,43.3,13.91c9.65,2.64,18.94,4.47,29.25,4.77l.12,24.94Z"/>
          <path class="cls-3" d="M446.4,750.62c-15.05-.54-29.44-3.04-43.76-7.55l-28.97-9.12v-24.79s39.74,12.17,39.74,12.17c10.98,2.41,21.61,3.72,32.87,3.96l.12,25.32Z"/>
          <polygon class="cls-3" points="983.32 612.03 904.71 633.45 904.57 611.23 983.31 590.81 983.32 612.03"/>
          <polygon class="cls-3" points="983.43 572.48 904.79 593.39 904.76 571.88 983.4 550.95 983.43 572.48"/>
          <path class="cls-3" d="M356.72,730.24l-55.48-20.82c-.53-10.95-2.8-20.46-7.77-31.42l63.14,24.49.11,27.75Z"/>
          <path class="cls-3" d="M888.01,637.95l-59.29,16.29c-3.09-7.47-7.49-13.42-13.36-18.97l72.15-19.68.5,22.37Z"/>
          <path class="cls-3" d="M137.22,636.08l-47.73-21.77.07-20.61,57,25.43c-3.93,5.06-7.19,10.14-9.33,16.95Z"/>
          <polygon class="cls-3" points="73.11 606.74 22.72 583.25 22.46 562.47 73.34 585.25 73.11 606.74"/>
          <polygon class="cls-3" points="73.19 569.29 22.76 546.54 22.4 527.39 73.42 548.06 73.19 569.29"/>
          <path class="cls-3" d="M628.65,705.62l-39.88,10.64.09-23.16,51.37-12.7c-4.73,8.52-9.31,15.44-11.58,25.22Z"/>
          <path class="cls-3" d="M279.48,531.01c-10.8,13.53-54.51,26.66-61.12,21.7-6-4.5,22.9-33.06,35.84-38.3l-22.42,26.6c-.69.82-.52,1.76-.12,2.36.28.42,1.15.97,2.18.46,15.71-1.64,28.72-8.88,45.65-12.82Z"/>
          <path class="cls-3" d="M597.86,1045c-12.38-5.15-9.39-10.25-9.1-24.41l22.81,19.78-13.71,4.63Z"/>
        </g>
        <g id="white">
          <path class="cls-4" d="M694.94,524.87c-47.71,15.84-85.53,44.58-116.22,83.95l-101.9,25.51,2.06-56.37c3.59-3.06,6.81-5.8,8.77-10.57l61.62-14.12,121.07-28.88,82.4-19.62,81.36-18.85c13.5,12.45,26.76,7.2,40.83-4.99,5.58,9.5,16.06,13.03,26.07,10.13l14.98-7.3-1.11,43.95-63.19,14.98c-42.8-36.24-105.54-35.02-156.75-17.83Z"/>
          <path class="cls-4" d="M518.98,529.98l-2.6.63c-4.47,1.09,3.48-4.87,7.76-10.75l112.09-26.62,146.91-33.78,44.72-9.78-2.19,8.36-59.41,14.44-247.29,57.5Z"/>
          <polygon class="cls-4" points="644.47 520.05 509.76 551.98 514.79 541.83 645.05 511.05 825.52 469.01 827.22 476.49 719.12 502.13 644.47 520.05"/>
          <path class="cls-4" d="M529.25,507.8c-.4-2.86-.15-5.37.24-8.33l113.53-26.36,106.38-23.68,89.46-19.29c-1.51,3.06-3.06,5.64-5.47,8.47l-192.93,43.81-111.21,25.38Z"/>
          <path class="cls-4" d="M527.59,490.32c-2.22-2.09-2.78-4.18-3.26-6.67l62.59-14.63,81.24-17.89,179.17-38.06c-.11,5.54-3.19,6.36-7.95,7.43l-214.9,47.94-96.89,21.88Z"/>
          <path class="cls-4" d="M425.68,634.74c-3.35-.25-6.37-1.62-10.07-3.2l.03-68.8,10.27,8.25-.23,63.75Z"/>
          <path class="cls-4" d="M446.53,639.46c-3.53.18-6.47-.44-10.05-1.82l-.04-59.93,11.97,4.98-1.88,56.76Z"/>
          <path class="cls-4" d="M394.51,623.88l-.11-52.14,10.77-6.12-.38,61.68c-3.54-.29-5.94-1.8-10.28-3.43Z"/>
          <path class="cls-4" d="M466.03,636.26c-3.32,1.44-6.14,2.08-9.47,2.05l1.7-54.66,10.44-1.83-2.67,54.45Z"/>
          <path class="cls-4" d="M613.16,599.66c-4.18,1.4-7.11,2.76-12.3,3.05,17.28-22.6,40.21-42.1,68.73-52.25-20.97,14.7-40.35,29.15-56.43,49.2Z"/>
          <polygon class="cls-4" points="384.22 619.87 373.69 616.59 373.54 577.55 384.38 575.33 384.22 619.87"/>
          <path class="cls-4" d="M644.34,592.23c-4.6.75-7.93,3.12-13.4,2.46,13.5-14.85,29.15-28.59,49.96-33.98-12.1,10.89-25.97,19.05-36.56,31.52Z"/>
          <path class="cls-4" d="M684.6,575.92c-1.66,4.7-11.42,11.58-18.44,10.93,5.17-4.5,11.51-8.62,18.44-10.93Z"/>
          <path class="cls-4" d="M734.02,703.21c-9.18-1.67-12.37,11.03-12.97,22.91l-33.3,8.72c-1.5.39-3.83.62-4.86-.23-6.3-5.21,3.85-38.62,14.3-41.36l65.69-17.22c8.67-2.27,18.84,23.62,9.8,32.45-7.87,7.69-21.2,7.32-30.63,12.26l-1.8-11.32c-.52-3.25-3.34-5.68-6.24-6.21Z"/>
        </g>
        <g id="off-white">
          <path class="cls-5" d="M537.45,415.17c-8.6-.31.31,9.9,20.33,11.84,29.67,2.88,56.92-14,66.71-42.2,16.22,18.33,8.36,46.16-2.97,66.13l-82.03,17.54,6.19-15.77c.85-2.16.28-4.67-.95-6.22-3.65-4.59-13.79-.42-20.24,8.08-4.01,5.28-5.39,11.36-7.55,18.29-15.74-18.9-34.33-33.57-57.31-40.63-24.34-7.49-50.54-5.43-73.23,5.13l-11.26,5.24c-10.16-13.44-9.54-31.96,1.44-44.92,5.24-6.19,11.22-10.59,18.66-14.94-18.6-29.38-20.3-70.14-12.77-103.23,3.33-14.63,9.8-28.16,20.15-38.63,15.79-15.98,38.92-18.16,58.02-6.58,16.85,10.21,27.57,26.98,34.08,45.81l21.34-1.03c2.94-23.48,14.37-51.19,34.42-63.49,22.68-13.91,45.55.51,59.22,22.5,18.76,30.18,22.75,63.43,18.94,98.63-.96,8.87-2.53,17.16-6.79,25.33-5.55-12.84-14.89-21.07-26.82-26,.9-20.96-.09-50.22-12.36-64.79-6.69-7.94-17.59-8.77-24.6-1.03-8.1,8.94-12.09,20.88-11.87,33.18l25.75,11.45-25.12,15.24c-.87,4.62.09,8.96.79,13.6-8.93,6.12-17.34,12.48-23.69,21.18-4.22,5.78-6.81,13.02-4.15,15.58.9.87,2.28.88,3.4-.32,14.99-16.01,41.26-34.27,62.36-30.24,8.44,1.61,15.15,6.59,18.72,12.53,5,8.31,4.88,16.94,1.49,25.37-7.44,18.5-31.65,28.66-51.86,27.93l-16.42-.59ZM431.15,400.24c4.34,1.36,7.81.26,11.25-.85,14.21-4.57,28.55-5.11,43-.94,1.3.38,4.23.17,3.86-1.36-1-4.17-4.45-6.13-7.33-9.31,9.49-26.72,8.96-55.91-1.95-81.82-2.54-6.03-6.66-11.07-12.28-13.87-8.89-4.42-18.53-.19-23.77,8.07-6,9.44-8.55,20.95-7.99,32.26l27.4,12.89-27.79,15.48c.58,10.13,4.16,19.05,8.47,27.89-5.06,3.25-10.24,5.66-12.86,11.56Z"/>
          <path class="cls-5" d="M947.6,344.35c9.44,5.79,17.34,13.53,23.44,23.33,8.33,13.38,19.47,24.05,34.15,29.86l33.62,13.33c3.42,1.35,6.16,4.05,7.09,6.57,1.36,3.69.83,7.15-1.02,10.61-6.59,12.36-25.06,11.98-39.45,7.22-9.31-3.08-17.61-7.72-25.39-13.37-.51-8.96-2.62-21.75-5.72-21.3-.68.1-1.56,1.1-1.72,2.23l-3.08,22.71c-3.42,14.65-10.74,28.11-22.47,37.44-4.27,3.39-8.71,6-15,5.94,13.57-20.12,20.13-48.21,13.67-70.87-.37-1.28-1.46-2.52-2.4-2.52-1.1,0-2,1.38-2.09,2.78-1.87,31.15-11.81,66.37-41.62,79.38-3.37,1.47-6.87,1.44-9.85-.04-2.16-1.07-5.47-4.28-4.95-7.88,14.43-24.44,24.45-53.44,15.36-81.11-.46-1.4-1.94-2.96-2.91-2.95-1.54.03-2.7,2.25-2.65,4.23.72,26.87-6.21,52.92-22.18,74.47-6.94,9.36-17.71,18.01-26.6,13.22-8.15-4.39-6.88-19.32-1.63-29.36l12.68-24.22c12-22.92-3.65-47.74-8.57-46.53-3.47.86,2.15,14.2.91,24.76l-60.03,12.34c-.27-13.33,9.87-22.33,18.55-31.81l22.46-24.51,11.9-12.25c1.78-1.84,1.38-2.64,4.3-3.65,3.1-1.07,10.55-7.02,10.13-8.9-.82-3.69-12.57-.81-18.72,3.45l-18,12.47c.4-8.27,4.05-14.78,8.64-20.98,13.77-18.61,36.28-27.18,59.34-24.58,13.37,1.51,25.32,7.08,33.37,18-10.59-1.86-28.03-.65-29.33,3.64-1.93,6.38,26.37,1.68,38.53,11.82,7.6,6.34,10.48,24.67,18.95,26.22,1.82-6.14-.07-12.06-2.67-17.65-.18-.39-.36-.65-.49-.73-.81-.52-.5-1.73.55-1.72.48.57.8.86.89.91ZM915.5,337.2c-.41,0-1.4.92-.98,1.74l10.6,20.49c.77,1.49,3.03,2.3,4.05,1.91,6.43-2.44-5.34-24.31-13.67-24.15ZM894.89,338.31c-2.26,2.41,3.97,21.77,8.31,19.84,6.44-2.86-3.44-25.03-8.31-19.84Z"/>
          <path class="cls-5" d="M459.47,534.22c7.7,6.33,17.06,19.02,13.18,27.78-1.43,3.23-4.74,5.9-8.96,6.97-16.4,4.17-32.57-10.1-45.97-20.94-5.77-4.67-11.26-9.65-18.7-11.36.08,5.04,2.95,8.21,5.53,12.32-9.32,7.05-19.42,12.04-30.75,13.81-18.04,2.82-34.57-6.15-42.6-22.27-4.29-8.61-10.79,17.06,20.12,34.27-16.39,6.49-33.68,1.16-44.66-11.79-16.12-19.02-17.9-46.89-2.52-66.65,7.21-9.27,17.04-16.19,28.88-17.06-4.88,10.05-10.8,26.76-3.53,31.72,9.94-31.54,37.16-53.53,67.66-63.87,27.73-9.4,57.25-6.27,81.99,9.4,12.85,8.14,23.99,18.16,31.72,31.21,6.04,10.2,7.75,24.78-1.91,27.35-13.99-22.22-37.47-41.52-63-46.18-1.43-.26-2.8.58-2.88,1.57-.06.74.59,1.85,1.64,2.55,11.99,8.06,23.72,15.7,34.34,25.55,12.36,11.46,28.57,31.05,20.59,44.29-2.22,3.69-6.46,7.27-12.2,8.21-9.54-24.33-38.14-43.08-62.61-51.16-1.07-.35-2.52.14-2.89.62-.44.55-.31,2.11.47,2.77l14.03,11.94,23.02,18.93ZM392.5,468.08c2.25-.54,6.23-2.98,5.34-5.03-2.8-6.43-28.35.27-36.24,12.45l30.91-7.42ZM378.08,491.59c2.74-.72,5.9-2.23,6.21-4.77.26-2.12-2.6-3.59-4.72-3.62-16.17-.24-30.51,10.73-27.95,14.15.29.39,1.22.85,2.2.6l24.26-6.36Z"/>
          <path class="cls-5" d="M253.69,290.3c-8.72-7.67-8.33-12.91-6.36-21.98,3.46-15.95,9.41-30.38,17.36-44.59,9.69-17.31,20.25-33.65,33.85-48,6.57-6.93,13.21-13.31,22.38-16.36-1.68,5.25-4.76,8.13-7.81,11.95-27.96,35.04-48.36,74.53-59.43,118.97Z"/>
          <path class="cls-5" d="M270.87,311.37c-4.54-3.18-2.57-19.54-.57-27.65,7.31-29.68,21.88-56.62,40.48-80.63,6.83-6.37,12.02-13.74,21.96-16.41-13.68,20.5-25.7,39.92-35.45,61.73-8.07,18.05-15.44,35.5-21.73,54.15-1.03,3.05-2.11,5.39-4.69,8.81Z"/>
          <path class="cls-5" d="M299.79,306.14c-1.21,3.58-2.69,6.5-5.68,7.76-2.06-4.19-1.91-8.52-1.18-13.04,4.64-28.84,19.12-61.46,39.28-82.56,3.7-3.87,7.2-7.5,12.78-9.09-.59,4.27-2.13,6.84-4.07,9.91-17.28,27.27-30.64,55.99-41.13,87.02Z"/>
          <path class="cls-5" d="M386.37,222.93c-3.04,4.55-4.74,8.91-9.11,12.93-2.56-21.82,19.17-45.81,40.84-47.42,16.86-1.26,33.73,8.08,41.3,23.78-6.61-.94-11.49-4.64-17.07-6.74-20.98-7.9-43.33-1.45-55.96,17.45Z"/>
          <path class="cls-5" d="M586.77,192.48c-19.33-9.67-40.38-5.77-53.54,10.95-2.04,2.59-4.25,5.27-7.66,7.19-1.93-5.15.16-9.39,2.21-13.75,7.48-15.87,23.21-25.38,41.06-22.7,15.53,2.33,29.95,12.81,35.71,27.73-7.19-2.04-11.69-6.38-17.78-9.43Z"/>
          <path class="cls-5" d="M321.96,312.41c-1.07,3.19-1.95,5.63-4.38,7.96-2.38-2.07-2.85-5.18-2.62-8.61,1.59-24.16,10.66-47.03,26.01-65.58,3.35-4.04,6.95-7.15,12.14-8.99-.81,5.41-2.78,8.95-4.95,13.13-10.38,20.02-18.92,40.29-26.21,62.09Z"/>
          <path class="cls-5" d="M659.74,441.96l-12.33,2.8,12.07-28.62c2.26,8.57,1.33,16.92.26,25.82Z"/>
          <path class="cls-5" d="M681.87,437.47c-2.65.98-4.37,1.5-7.77,1.47,2.19-6.99,3.23-13.54,7.29-19.36l.48,17.88Z"/>
          <path class="cls-5" d="M706.83,431.02c-.59,1.22-3.23,1.83-5.57,1.91.69-3.89,1.45-7.82,3.77-12.29,1.07,3.6,1.43,6.81,1.8,10.38Z"/>
        </g>
        <g id="teal">
          <path class="cls-2" d="M416.1,45.8c-67.62,15.84-126.96,55.33-166.69,111.6-21.14,29.7-35.25,63-41.01,98.71-10.23-1.68-19.14-.86-29.22,2.18.91-15.2,4.6-29.19,9.12-43.92,30.85-92.52,111.61-162.19,205.66-185.16,83.92-20.49,182.83-4.38,243.47,60.01,15.32,17.67,28.26,36.47,36.71,59.38-6.76-3.08-11.6-8.82-16.58-14.45l-30.97-35.02c-29.99-31.42-68.43-51.53-111.64-57.53-33.08-4.59-65.64-3.59-98.85,4.19Z"/>
          <path class="cls-2" d="M198.39,443.76c-7.03,11.02-19.47,13.33-29.79,6.2-7.68-5.3-13.44-12.36-18.07-21.04-15.22-28.49-20.33-62.17-13.71-93.85,2.52-12.07,7.62-22.8,16.14-30.77,28.79-26.96,67.07,42.42,55.75,110.39-1.75,10.5-4.66,20.19-10.32,29.07Z"/>
          <path class="cls-2" d="M759.96,300.34c-1.65,18.27-6.77,34.43-16.77,48.95-.7-18.95-1.19-36.18-4.43-54.46-7.59-42.86-24.77-82.17-50.51-118.19,18.47,1.41,33.53,11.45,44.38,25.63,21.21,27.7,30.54,62.41,27.32,98.08Z"/>
          <path class="cls-2" d="M189.3,466.79c6.44-3.25,12.28-6.02,16.79-11.7,7.01-8.83,11.6-18.67,14.06-30.13,7.34-34.32,3.75-70.4-10.93-102.27-9.79-21.25-27.12-40.62-50.77-31.65,16.62-21.26,42.49-29.7,63.45-12.14,22.48,18.83,34.71,54.54,38.12,83.93,3.46,29.86,2.18,65.1-13.71,90.45-11.79,19.51-36.38,26.22-57.01,13.51Z"/>
        </g>
      </g>
    </g>
  </g>
</svg>