<?xml version="1.0" encoding="UTF-8"?>
<svg id="Layer_2" data-name="Layer 2" xmlns="http://www.w3.org/2000/svg" viewBox="0 0 450.99 157.61">
  <defs>
    <style>
      .cls-1 {
        fill: #f8efdd;
      }
    </style>
  </defs>
  <g id="_1b" data-name="1b">
    <g id="bg_copy" data-name="bg copy">
      <path class="cls-1" d="M450.65,44.06c-.33-.25-1.24-.6-1.74-.56l-8.92.71,8.22-17.41c.42-.88.06-2.9-.96-3.04-3.03-.43-5.88-.09-8.81.38-3.13.51-5.29,2.36-6.64,5.23l-7.51,15.86c-.8,1.68-6.42.86-8.47,2.07-2.68,1.59-4.48,6.83-2.79,7.88.35.22,1.2.27,1.76.26l5.1-.1-11.7,26.92c-1.69,3.88-11.35,16.21-14.56,12.11-1.21-1.54-.16-4.7.65-6.48,2.75-6.03,5.65-11.54,8.72-17.37,1.94-3.68,4.45-9.36.87-12.82-3.98-3.86-9.97-.58-14.35-2.71,1.03-3.55,2.25-9.82-1.06-12.03-1.25-.84-3.31-1.07-4.68-.71-7.45,1.94-10.51,12.39-6.46,19.21-.76,4.47-2.4,7.17-6.11,8.95.35-8.17-1.74-16.77-10.66-17.59-14.23-1.3-27.83,13.86-33.65,29.49-.78-6.58-3.47-13.03-8.18-18.76l-7.07-8.58c-6.26-7.61-13.71-14.8-12.7-25.1,1.02-10.48,9.9-18.74,20.3-19.22,3.63-.17,7.05,1.25,8.36,4.49,1.43,3.53.3,7.24-1.81,10.2-5.28,7.44-13.18,4.97-11.68,12.38,1.12,5.56,8.24,7.02,13.91,4.48,12.17-5.46,19.08-22.46,12.1-33.8-2.96-4.81-8.23-7.49-13.97-8.16-21.52-2.5-43.87,13.62-45.47,35.77-.35,4.89.89,9.77,2.86,14.2,7.46,16.83,27.76,27.18,25.99,44.74-1.37,13.61-14.91,23.7-28.07,19.67-5.5-1.69-8.96-6.89-8.27-12.65.96-8.06,7.32-13.72,15.16-14.57,1.88-1.54,1.96-4.28,1.24-6.56-1.82-5.84-9.61-6.08-15-4.08-6.73,2.51-11.3,7.55-14.77,13.64-.97,1.7-2.98,5.17-4.28,6.72-4.43,5.29-8.49,11.4-14.41,15.16-5.53,3.51-14.66,2.89-13.47-5.64,14.51-.15,32.61-12.72,30.94-28.42-.45-4.26-3.23-7.5-7.24-8.45-4.79-1.13-9.54.17-13.87,2.43-6.1,3.19-10.68,8.01-14.77,13.44-5.25,6.97-8.2,14.46-10.01,23.01-.83,3.03-13.57,14.69-15.81,9.06-.9-2.26-.29-5.22.72-7.52l13.26-30.27,9.59-1.39c1.86-.27,3.31-1.65,4.06-3.31l1.22-2.71c.18-.39-.01-1.63-.35-1.88-.34-.25-1.22-.53-1.67-.5l-8.5.68,7.58-16.64c.22-.48.04-1.78-.23-2.18-1.24-1.86-7.7-.61-9.97-.19-2.4.45-4.41,1.86-5.49,4.13l-7.89,16.61c-2.56.5-5.32.54-7.89,1.29-2.95.86-5.14,6.77-3.61,7.85.26.18,1.1.4,1.43.38l5.89-.35-11.01,25.41c-1.36,3.13-11.48,17.6-15.53,14.36-2.54-2.03,1.2-11.44,2.43-14.19l11.66-26.24c.25-.56.13-2-.2-2.45-1.6-2.16-13.37-1.39-15.79,4.26-7.33-7.2-17.91-2.42-24.41,3.55-8.36,7.66-13.98,17.54-17.38,28.39-.85,2.71-1.92,4.83-3.73,6.95-2.16,2.52-4.39,4.99-7.72,5.9-.83.23-2.23-.04-2.75-.53-1.93-1.83,2.02-9.68,3.31-12.19l7.07-13.78c1.21-2.35,1.96-5.3,1.39-7.83-.98-4.39-5.13-6.74-9.31-6.78l-7.89-.08c.37-3.73,1.99-8.38-1.4-10.83-1.29-.93-3.39-.98-4.8-.63-3.81.94-5.86,3.81-7.38,6.99-1.97,4.12-.67,7.8.59,11.71-.72,4.9-3.76,9.42-6.12,13.51-7.81,13.52-18.81,25.57-33.91,30.54-4.59,1.51-9.21,2.16-13.94,1.27-5.71-1.07-10.12-5.39-12.04-10.96-2.77-8.02-2.48-16.4-.6-24.9,4.11-18.53,13.57-35.64,26.7-49.33,4.22-4.4,8.89-7.76,14.12-10.58,3.61-1.94,7.49-2.98,11.47-2.99,4.29,0,7.46,3.15,7.62,7.65.14,4.03-1.24,8.09-3.06,11.8-3.53,7.22-8.68,13.19-14.92,18.24-.85.69-1.35,2.33-1.22,3.17.12.78.95,1.95,1.76,2.36,15.36,7.77,40.43-25.89,30.18-45.35-2.36-4.47-6.85-7.28-11.79-8.39-13.53-3.05-28.6,3.53-39.62,11.15-10.79,7.46-19.62,16.67-27.33,27.28-5.81,8.01-10.27,16.42-13.86,25.64C2.55,101.87.68,109.95.1,118.55c-.38,5.65.32,11.19,1.82,16.62,3.56,12.85,12.93,21.02,26.34,22.25,9.15.84,17.98-1.21,26.22-5.34,22.44-11.24,35.7-32.79,45.77-55.12,2.13-.44,4.47-.36,6.32,1.11.89.71.41,2.5-.13,3.49-3.51,6.48-6.91,12.71-9.85,19.47-1.59,3.66-2.66,7.32-2.99,11.22-.44,5.29,3.08,9.37,8.46,9.4,8.11.04,15.53-6.2,20.97-12.01.78,1.91,1.52,4.02,2.82,5.56,3.02,3.58,7.8,4.2,12.1,2.57,5.78-2.19,10.15-6.3,14.37-11.41.6,3.96,1.87,7.29,5.45,8.71,8.68,2.53,17.17-4.98,22.85-11.31.47,5.6,4.32,9.4,9.65,9.21,9.49-.33,16.53-7.16,23.12-13.8,4.66,5.8,9.38,7.8,14.82,8.25,11.62.97,21.3-8.71,29.03-23.65.33,17.1,15.27,24.63,30.61,23.03,12.13-1.27,23.19-7.34,30.74-16.86,2.32-2.93,4.18-6.05,5.57-9.29.23,1.73.63,3.37,1.24,4.86,1.7,4.18,5.24,6.92,9.74,7.5,16.27,2.09,30.17-19.59,34.05-33.36,8.16-2.57,10.56-7.07,15.14-14.1l5.47,1.51c-.22.82-.64,2.1-1.14,3.01-3.72,6.75-7.23,13.38-9.8,20.65-1.17,3.29-1.75,6.77-1.36,10.08.57,4.88,4.36,7.96,9.21,7.55,7.9-.67,13.99-6.07,19.06-11.83.76,2.37,1.2,4.78,2.8,6.35,2.8,2.75,6.99,3.24,10.81,2.47,11.12-2.23,22.62-14.18,26.86-24.15.75-1.77-.33-3.73-1.84-4.21-1.24-.4-2.9.33-3.71,1.78-3.35,5.98-7.92,11.08-14.44,13.52-1.31.49-3.27.36-4.06-.45-2.84-2.97,1.36-11.38,3.2-15.41l10.49-23.09,9.55-1.2c1.09-.14,2.73-1.34,3.28-2.31l2.17-3.83c.23-.4.12-1.67-.22-1.92ZM245.96,78.44c1.5.21,1.83,2.2,1.59,3.47-1.4,7.52-9.69,16.36-18.1,16.94,1.56-5.53,10.33-21.27,16.51-20.41ZM162.09,93.81c-1.31,5.02-3.33,9.52-5.43,14.24-1.74,3.91-3.97,7.43-6.64,10.75-2.12,2.64-6.77,7.8-10.17,5.65-2.6-1.64-1.51-7.14-.72-9.88,2.35-8.15,6.47-15.55,11.96-22.01,2.24-2.63,6.9-5.84,9.87-3.04.8.75,1.48,2.9,1.12,4.29ZM349.9,96.34c-2.27,2.42-5.97,5.52-9.02,4-3.34-1.66-2.6-8.46-1.78-11.54,2.27-8.5,6.17-16.6,12.44-23.09-1.12,6.53,1.21,12.22,7.41,14.33-2.05,6.15-5.14,11.42-9.06,16.29ZM361.68,70.52c-2.16-1.68-2.1-4.72-.64-6.89,1.63,1.99,1.47,4.54.64,6.89Z"/>
    </g>
  </g>
</svg>